<mxfile host="65bd71144e">
    <diagram id="dAHX7KflpK4ZzHubkyPP" name="ページ1">
        <mxGraphModel dx="1809" dy="1351" grid="1" gridSize="10" guides="1" tooltips="1" connect="1" arrows="1" fold="1" page="1" pageScale="1" pageWidth="827" pageHeight="1169" math="0" shadow="0">
            <root>
                <mxCell id="0"/>
                <mxCell id="1" parent="0"/>
                <mxCell id="2" value="raspi 4" style="whiteSpace=wrap;html=1;verticalAlign=top;" parent="1" vertex="1">
                    <mxGeometry x="240" y="80" width="420" height="350" as="geometry"/>
                </mxCell>
                <mxCell id="33" style="edgeStyle=none;html=1;entryX=1;entryY=0.5;entryDx=0;entryDy=0;" parent="1" source="3" target="32" edge="1">
                    <mxGeometry relative="1" as="geometry"/>
                </mxCell>
                <mxCell id="34" style="edgeStyle=none;html=1;entryX=0.122;entryY=0;entryDx=0;entryDy=0;entryPerimeter=0;exitX=0.122;exitY=0.992;exitDx=0;exitDy=0;exitPerimeter=0;" parent="1" source="3" target="12" edge="1">
                    <mxGeometry relative="1" as="geometry"/>
                </mxCell>
                <mxCell id="3" value="nginx server docker container" style="whiteSpace=wrap;html=1;verticalAlign=top;" parent="1" vertex="1">
                    <mxGeometry x="254" y="110" width="196" height="120" as="geometry"/>
                </mxCell>
                <mxCell id="37" style="edgeStyle=none;html=1;entryX=1;entryY=0.5;entryDx=0;entryDy=0;" parent="1" source="4" target="5" edge="1">
                    <mxGeometry relative="1" as="geometry"/>
                </mxCell>
                <mxCell id="4" value="RTMP server" style="whiteSpace=wrap;html=1;verticalAlign=top;" parent="1" vertex="1">
                    <mxGeometry x="360" y="135" width="80" height="40" as="geometry"/>
                </mxCell>
                <mxCell id="5" value="HLS server" style="whiteSpace=wrap;html=1;verticalAlign=top;" parent="1" vertex="1">
                    <mxGeometry x="264" y="135" width="76" height="40" as="geometry"/>
                </mxCell>
                <mxCell id="20" style="edgeStyle=none;html=1;entryX=0.5;entryY=1;entryDx=0;entryDy=0;" parent="1" source="6" target="7" edge="1">
                    <mxGeometry relative="1" as="geometry"/>
                </mxCell>
                <mxCell id="6" value="Influx DB docker container" style="whiteSpace=wrap;html=1;verticalAlign=top;" parent="1" vertex="1">
                    <mxGeometry x="290" y="330" width="160" height="30" as="geometry"/>
                </mxCell>
                <mxCell id="27" style="edgeStyle=none;html=1;entryX=0.571;entryY=1;entryDx=0;entryDy=0;entryPerimeter=0;" parent="1" source="7" target="3" edge="1">
                    <mxGeometry relative="1" as="geometry"/>
                </mxCell>
                <mxCell id="7" value="grafana docker container" style="whiteSpace=wrap;html=1;verticalAlign=top;" parent="1" vertex="1">
                    <mxGeometry x="290" y="250" width="160" height="50" as="geometry"/>
                </mxCell>
                <mxCell id="18" style="edgeStyle=none;html=1;entryX=0;entryY=0.5;entryDx=0;entryDy=0;exitX=0;exitY=0.5;exitDx=0;exitDy=0;" parent="1" source="8" target="11" edge="1">
                    <mxGeometry relative="1" as="geometry">
                        <Array as="points">
                            <mxPoint x="490" y="195"/>
                            <mxPoint x="490" y="310"/>
                        </Array>
                    </mxGeometry>
                </mxCell>
                <mxCell id="38" style="edgeStyle=none;html=1;entryX=1;entryY=0.5;entryDx=0;entryDy=0;" parent="1" source="8" target="4" edge="1">
                    <mxGeometry relative="1" as="geometry"/>
                </mxCell>
                <mxCell id="8" value="Lepton thermal camera&lt;br&gt;driver &amp;amp;&lt;br&gt;tempreture search software" style="whiteSpace=wrap;html=1;verticalAlign=top;" parent="1" vertex="1">
                    <mxGeometry x="520" y="160" width="130" height="70" as="geometry"/>
                </mxCell>
                <mxCell id="17" style="edgeStyle=none;html=1;entryX=1;entryY=0.5;entryDx=0;entryDy=0;exitX=0;exitY=0.5;exitDx=0;exitDy=0;" parent="1" source="9" target="4" edge="1">
                    <mxGeometry relative="1" as="geometry"/>
                </mxCell>
                <mxCell id="9" value="ffmpeg" style="whiteSpace=wrap;html=1;verticalAlign=top;" parent="1" vertex="1">
                    <mxGeometry x="520" y="110" width="130" height="40" as="geometry"/>
                </mxCell>
                <mxCell id="19" style="edgeStyle=none;html=1;entryX=0;entryY=0.5;entryDx=0;entryDy=0;exitX=0;exitY=0.5;exitDx=0;exitDy=0;" parent="1" source="10" target="11" edge="1">
                    <mxGeometry relative="1" as="geometry">
                        <Array as="points">
                            <mxPoint x="490" y="260"/>
                            <mxPoint x="490" y="310"/>
                        </Array>
                    </mxGeometry>
                </mxCell>
                <mxCell id="10" value="Enviroment sensor&lt;br&gt;driver&amp;nbsp;" style="whiteSpace=wrap;html=1;verticalAlign=top;" parent="1" vertex="1">
                    <mxGeometry x="520" y="240" width="130" height="40" as="geometry"/>
                </mxCell>
                <mxCell id="16" style="edgeStyle=none;html=1;entryX=1;entryY=0.5;entryDx=0;entryDy=0;" parent="1" source="11" target="6" edge="1">
                    <mxGeometry relative="1" as="geometry">
                        <Array as="points">
                            <mxPoint x="585" y="345"/>
                        </Array>
                    </mxGeometry>
                </mxCell>
                <mxCell id="11" value="influxDB data uploader" style="whiteSpace=wrap;html=1;verticalAlign=top;" parent="1" vertex="1">
                    <mxGeometry x="520" y="290" width="130" height="40" as="geometry"/>
                </mxCell>
                <mxCell id="31" style="edgeStyle=none;html=1;" parent="1" source="12" target="30" edge="1">
                    <mxGeometry relative="1" as="geometry"/>
                </mxCell>
                <mxCell id="12" value="servo control&amp;nbsp;&lt;br&gt;REST api server" style="whiteSpace=wrap;html=1;verticalAlign=top;" parent="1" vertex="1">
                    <mxGeometry x="254" y="380" width="196" height="40" as="geometry"/>
                </mxCell>
                <mxCell id="22" style="edgeStyle=none;html=1;entryX=1;entryY=0.5;entryDx=0;entryDy=0;" parent="1" source="21" target="9" edge="1">
                    <mxGeometry relative="1" as="geometry"/>
                </mxCell>
                <mxCell id="21" value="camera" style="whiteSpace=wrap;html=1;verticalAlign=top;" parent="1" vertex="1">
                    <mxGeometry x="680" y="110" width="130" height="40" as="geometry"/>
                </mxCell>
                <mxCell id="24" style="edgeStyle=none;html=1;entryX=1;entryY=0.5;entryDx=0;entryDy=0;" parent="1" source="23" target="8" edge="1">
                    <mxGeometry relative="1" as="geometry"/>
                </mxCell>
                <mxCell id="23" value="Lepton thermal&lt;br&gt;camera" style="whiteSpace=wrap;html=1;verticalAlign=top;" parent="1" vertex="1">
                    <mxGeometry x="680" y="175" width="130" height="40" as="geometry"/>
                </mxCell>
                <mxCell id="26" style="edgeStyle=none;html=1;entryX=1;entryY=0.5;entryDx=0;entryDy=0;" parent="1" source="25" target="10" edge="1">
                    <mxGeometry relative="1" as="geometry"/>
                </mxCell>
                <mxCell id="25" value="Omron enviroment&lt;br&gt;sensor" style="whiteSpace=wrap;html=1;verticalAlign=top;" parent="1" vertex="1">
                    <mxGeometry x="680" y="240" width="130" height="40" as="geometry"/>
                </mxCell>
                <mxCell id="28" value="Http server" style="whiteSpace=wrap;html=1;verticalAlign=top;" parent="1" vertex="1">
                    <mxGeometry x="264" y="185" width="86" height="30" as="geometry"/>
                </mxCell>
                <mxCell id="30" value="PWM control&amp;nbsp;&lt;br&gt;servo motor" style="whiteSpace=wrap;html=1;verticalAlign=top;" parent="1" vertex="1">
                    <mxGeometry x="680" y="380" width="130" height="40" as="geometry"/>
                </mxCell>
                <mxCell id="32" value="Browser" style="whiteSpace=wrap;html=1;verticalAlign=top;" parent="1" vertex="1">
                    <mxGeometry x="10" y="110" width="200" height="120" as="geometry"/>
                </mxCell>
                <mxCell id="36" value="" style="shape=image;verticalLabelPosition=bottom;labelBackgroundColor=#ffffff;verticalAlign=top;aspect=fixed;imageAspect=0;image=data:image/png,iVBORw0KGgoAAAANSUhEUgAAAggAAADDCAYAAADnTOk9AAAAAXNSR0IArs4c6QAAIABJREFUeF7svQeYHNd5JXqqOk8eTM7IOadBYCYoUQSDZFMSg/XJa3lXu7bXQQ7rXb9v13y0vbZ3HZ/ksH5a29pnybZMShZJMWcQRCDyIGMwOc/0zHTO9b5z696emibCAJNAsApff43prq6uul1V/7nnP//5NcMwDNiLPQL2CNgjYI+APQL2CNgjYBkBzQgFDFw4CaO2Hp1aEVrjbhjjGhB3AXCYq+oAPADy+dAANwC+zde5aPJZYA1t4m9kAPA1PvORFn/rSMOHFDxIw4U0nEiJZ7eWgtNIw4EMnHxdy8ANAxoMxAwd0YwDo9Ei9PoLgESBuQOGBqRgPtS+cH+4b+qhDph/8z21v9Z9V7vI1+Jyd7me2O0YkA4BmQig8JTuAZzFgOY2X09HzJU1jpkcN019kfxS8Z4OaHJHss8ayot1LK6O4tix4/YJao+APQI3OQLLly+H1+tBR0cnxsfHb3Ir9sfsEfh0j0BVVRVWrFgOzThzzMA3voD0U1/DM9pm/E5XFYyP3MBgFWAUmUHWqwENANZowEoNqNSABRrglGBANwDNAAwCAAfgYBDk/xNmtDXkM6KAFodDi2CpMYZaBFGhhVBqhFCmBVGGAEoRRKERQ6EWxQLEUK4n4DAy6DV8aI8X4oOunfhfH2xHonM5EHcAUR0IAAjKYO6U4IWAxgsTzCjAoICNAgmM1woEcBeTchsDAMIGoGtAwgDCHUDoJBC9CBgSiXgbgcItgKsGiFwAohfM49XzAYdvAggQFIiHC9C9gO4DNA+gu82HeN2Jvbs9eOapy3jgM5/7dJ+Z9tHbIzCNEfjm//MnaGxswO//wf/E/v0HprEl+6P2CHx6R+CJJ76Ev/jWn0Mz2k4Y+JMvIbT2HjzVuwYvtC8H2kuA+EJALzYBQoEGLAewSTeBQpkO5KnZuGQIVLAVDIIOMFBrjLrWR0wABBhhlBgBLCJA0MNYgBAWIIgyI4BSLYwiRFCIKEoQESDBjQwCjnz4UYSu6FYcG9iNfzySj3CHA+j3AYMaEGFQdpqAgOCADwUI+Dsr4KAm+Ao08JlYhqyBAgsEHMMAQmEgGQSi3UC0FUh0mSBI1wFfI+BqBPQFQKIPSHYDRgZw5JlAQLEFumINXCZwUADBwXUIEpxiXRsgfHovRvvIZ24EbIAwc2Npb+nTOwITACFwzogd/jm8dF7Df2m9Fxc67wd68gCjFnAWmOxBLYDVGrBCA6q0iTQDsYHIKhhmAOYfnHWTWiewcBqAg9E3CWQYgeOAIwFkwoy+KEUIDQIERFCmhU2AQAZBi6BYi6DEiAiQ4DWSSOlOpHQvEqhEMF6N88MN+NtzC9F/rBI4mwai5YDhAogTCA6YArGyB9w//i2Ai9pvy/8l+SHwjAAIaWC4HYj2AfEhIDkEpEhZZgAGfW85gEIIpMTjEcekSRDA4M/Az4dKJ1gAAkGCABJqBzXsvYMMQpvNIMziNeksKMezv/okDoZrUNGxH+fGHCgvKUBZHhCKOGHkF6Ot/QKq9AhC3mKcPHYK991zH8bjEYycPY6Vd+1FgRHGkQ/3oWHNNixZXIXzZy+h7/wJOOpWo6HABX9RHVb5Ejhy7Cw27d6OiyeOwO0tRGlNFc5+dARGZADHLnTN4lF+ujdtA4Rb4/d3ePLw048/iiOtfaitqMKy5Q2I9Pfi9dM9uG/7WoyN+DE2PIiS6gZs37YBp177J5zLVKHRk4anvAYf/Ot30DXGm7G9zMcIZAGCP3zeeKXlF/D64Tie63gcgd4vAP0uIFMEuHSAcXCxBiwFUKsDJQyyDIRSb8C9l5NkcSAMvvybgdjBNARfTEk2IWk+G8zXRwAtgjxEUGNEUIUwKjQyCyEUgY8wSrUISvUo8jNROGHAqQMenbqEDMaMWrzq34N/PrkSY+8ngfZCIF1osh2Mu2pfrMBAsQdq1xVjoBgG6g2IYwgQBsPA4Dkg1gMkx4FkFGAqhQBIpFI0IMPgL6kTsgo8WJFGYOqADwtAIFOgExQocJAn3zd1CoJBeLrdBgizeDVkdC/+719/EgcT1agZ6UbCUw4jHUbP8XfQ3xrAherV+OqD21CZGMahjkGcP9+BVcsWYfO2jRg6fhCHYgVYV+qGS0/CmVeJhaVBDMRK4G89hra4F1F/GPV33I81qQ6cPN+PQV8JHlhVj47OPpQ2NOHA9/8GKY8Pp1u7Z/EoP92btgHCrfP7f/nRh9CXKUJVnhfVZWkkOs7gRLoJq5cvhXu0DfvaQ9jcVInCpatRFOhEyyjQf+4EHrjvXnzvL/8QbaO8GdvLfIxAFiCcG+sx/u17/wvnzqYwNHwX0L8ZGHAAKZ/JFDC1sEwDqjWgWDPz+goEqD13ScZABWUVNwVQIEhgYCVIkA8xTY+aDyMCJ8KoNsKopu5AgoQSkXYIodwRRqERgRtpeLQM8vUkCvQE3I4CjMSacLanDC+0NOLDk0tgDJUDHrIfUk/A/VEph1yBokoxcF0lZqQGgbs1agDDEWD4DBBtN9kP5wLAUWQyBalRIEXRYtJMK1CwyIfQE0hdQZZBsGgQHPkmQMiCCIGeBOOyd7fPBgjzcSXM9HdqDmzbsQNdZ46jf5yskr3M5QjYAGEuR/vGvytVuhDVmSEM29fGjQ/eHH4iCxAODoWN5h+cB7rCwFg1MFQMDOtAOg+o1IFNAJbqk8GBdUcZXEXBA2fWVPETLEjAoGbsBBVkHCjwI2AgWBDCxRjVgIAREowCxYk1WlSwCRQtVhgBVOoBFCMEr5aCT0ujSIuhGBFU6mmUxePwxoAXw3fjty9/Bl3naoBRFxB0mEwAkYxKN6i0ghXEEBwopiNtAFEKEgkO0sBoDBg9YwoQiSDyVwOeBiDeByS6geQwkAqax8F0gaNAig85GJI5YHpBAAWHBAX5gJPMgUs+HGZVBAHCHQQInTaDMIcXgf1Vt98I2ADh9vtN7SOa+xGYAAjdCaP5r4eAwRAQKQSCbiDiANw+YJnUHtRrgI9pBbmjqnqRf0pmXbzHYCfYA91cl7FSzeK1jEnNeznLTks2gekGzrL4IJsQg1uLo4GMghZCtRZANUYFk5CnxZGPOIoRQxHZBj2KJiOC8nQKLViFlyP34nvt9Thz3o3MQAkQ9AEZVhRIsJLVS8h9NisuTQDBdSIGEEybAGEwCoQSQKQTiFOYaADeJsBVbWoRKFZM+mVpYwoQzECBBAESEJjUgJmCoGZBY+ohD3CyikGxDGLQxHomQOiwAcLcXwv2N95GI2ADhNvox7QPZd5GYAIgtKeM5v8eBMajQMILJDxmwCzXTVEi9QcVEhwoKwM+K7DAQ1BxTlH1KrWgvBKURkGBCcEicOasOP2wrG7gtD8GHWHUI4LF2jjq4Ec5xkVlg2APHDHkZyIo1yKoJ5BAHImED8PBPFx0b8JfhbfjtYvVwDkdiNUAGUnjkyHgfivdAb+K++eRXgWhDDDORwrwR4FYGogPA8lBk/lwFJrpgeQIkBgwvQ/UBgVAIBiRgV+gJIWiFIvgNgWMfAiAwLSEGkSmGGwNwrxdDfYX3zYjYAOE2+antA9kHkdgAiBcThvN/y0BhJJAwgmkpRCRosQGDajRgCLpd2D1PMrxAMoaECl/Jb5PbQKfVeWAeM36OkGCTDVoTDfISgdE4NKiWKWNocnwo0qwCEFR9VBEgGDEsECLooYMA/8fTcAzEsPZhA8/WPA5/G3mAXRfyEPyogeIFgIpF5B0TMTslDSPVNqJJNkDAxjNAP44EIxJ86UQkAoIZkOwCAQKyVGTPRB6CrIFLFVUugIGfRdgECCQopCIRKQUKFK0AAShW3BKAkEChKdabQZhHi8K+6s/+SNgA4RP/m9oH8H8j8AEQLiUNpp/KwEE40DCBXgcQJ2sXGAFQ7kG5Ek0oAAC91+kEySzoBwV+brI6Sv3RSr9ZdpBbEKuryoLRICmd0AK0OmPQJ8EqgTD0LQImjCORRhFjTGGKm0UFVoAxXoE+UYcZXoUNSBAiGBBPAmPP4a+/gRO+UvR796FlsLVeClegXPdPmC8BohVmTGbDwIEshhc+P94BghqgJ/aA7IHKbNCIR02HxQpUmtAR0WCgxQBAvUWTBsw0MvKBSVQFAOQwyAQOHB9wSBIDQIBgnBWpA+CC888eUEAhI0bN6Ot7TJ27b4Lb77xClasWIWKykq0tl5CR3vbrJw9ukPHqgeXIZXI4PzrFyd9R+O2OnQf60MmxWMyl6pVFVj/hTU49HdHMd7Lsg/AV+xFPJxA9apK0MF7+NII8hb4EB6JIBVPo7C6AJXLyuAr8WGsJ4DgQAgOp45l9y5GOsnxBKLjcXQf7UH1mirUrK5EMpHChdcvYbyXTlhAImyWPm15cgNO/egMEmGyUBDfEx2LweD5Jk+1dY+tFpKYimXlSEaT4DGO9wXQfqAL4z0B1Kyvgjffg/4zA4iMxuB0O0TCJxWnRmZWhvmaG80r9UF3aIhHktj8xHqc+P4pxIJTK/XSdA3ufDc8BS4xJrHAp1MBbgOEuT9v7W+8/UZgAiBcTBvNv54AAgyEPqDQASwEQN1BKUz2QJkiqTy+AAgSCDDIW9MNqjqAokQ3AQIjsj4hXBRpeVmKqHwJhIkRA4RZ1QCNosUgChDAKoyjThtDPYZRDb/wRygQDosx1AoGIYLSeBLu8QTS7RGED40Bw268sngJ/mXlBnzg2oyB9iWAfwkQoy0zmQRZfklTxGgGiKRNJ0ZWLwj2gGyBDmSiQDoKZGi1TDvlkAQIY6b3g0grSNGhMDyyagtklBLGUdQgMMVAIGH1SFAVDk7s3eXEM0+eEwChsWkhMuk0tm7bgZde/CHS6TQeeOBzuHTpvAAJDocDTrcT3kIPDBiIUlCZs+hOHQ1bauEr9WH5nsVIpzLgawyUoaEwimoKMd4VRCaZRnF9EZxeJ8IjYQycHcKZFy/gjl9oRmFlPjRdh8PrxGjbKOKBOKJjcSy+qxGJaBIX32jF+sfXoL9lEJUry+FwOTDWOQ5PsUeAgvyyPDhdDhiahlQ0iXQyLb5vuG0U1SsroLsc0DQNA2cHxfr8vtKmEuhOB86/dgnpRBruQg+C/SGEBkLY+fWt6G8ZEtuo21ortk/AwO91uHW88OuvwVPoFuOyfM9SJOMJJGMphAbC8JV6MdYZQOWqcpQtKsX+v/oI8bG4GFu1rHxoGfyXRzF4ji5Zs784nU6kUsojHLjjP26Ht8iL7mO9iPpj6Dgwu+WQ/G2NzATom/0j/vg38PefTjsY/n4ZyzHMF0Bwu91IJKYG5mZjnF0uF5JJEyzPx5J7Ls/1Pui6Puk8mOvvn+55PBP7O5P7MAEQLqSN5l8hrR4ylfgFummMREOkBdJFkX5ATA3kVgIorYFiDLI9DqT1MsGDVOmb1QsSWAhtggQJBBIsg/QxWCYBnQwCqwMC0DGG1do4mvQx1BgjItVQpoVQgjAqtRDq9SBqjCiKYkm4RhNwdESAgwGMfxTAP6WTOLp6BXz3fhmnkjU4NOBD0F8DpJk7obkRp6MGECIoSE7YNceoVaCgkuCGZYxxM82QGDGZAwIFAgbqB0RqgQ+CA1W9oESK0jBK9V5gikG4JxIkSBOlLHhwSIBwfsophpWfWYpVDy6HO88tZvAOtwOdh7tRtbIC3iIPPEVeEWAJIN794w8QDcTEbL24vhirH1yBD/76IBq31aOgMl/MphmUktFUliVw+ZyoXFGB0GBIzEYbttYhlUijflMtjv/TSSRiSSRCSVSurEBRdQGGzg+joLIANesq0X20D/1nBgUg4Yye22IQ5wxfLT6fD9Eof+trL/zcnt+8C6//3rsoqi3E+s+vFsd68c1W+DtGkUlnoDkIfFLiO/Y+u0eAjo6DXTj2/VMmM3GVZb5vatagQnZl9YPLceK504IJCPSbjMlsLrfCTZXHNx2AkDs+8wUQvF4vYrGPA/XZ/P2s254pgEKQXlhdiJL6Ypz58fkp7/58AxROmqxgf8o7PkMrzmRwvtldmsnrOQcgJIEo+wi4zRQBgUElLZU10xhJNWjijF8JEiU7LgK/EiNadQl8X9G0VltjHj2BAtkFrqMskMV26LxIFEzKehyaMYql+hgW6mOoMkZRwZSCHkAFxoT+oF4LoCZjAgRtIA7tcgSOE0GEjobwblcYJ5JAeG0Tan/qfryZDOPFji1IZh4DjDIaOZqVCwQIgQwQMICIBiQlqBGag7SpOyAwiHQAiX7Z7IngQJohKf8DkTYgyJEmEMpBUTWvUhoEkY5Qg8f0gjk4Zoph6gDh4d/7DF599i0R0J0+JzY+vg6ZRBojbaPoOz0Ah0tHaIhCyo8v1zqRCC5cPpdgGmaTpp4qQODec59mY19uJYCgfqWm7fUoaSgWQIFLaWMJKpaXif8H+oIC2G776ibEAgm88fvvTKRUbuCuQuDGtFEqmkb38d4b+OTMrsqbqg0QZmZMbwQgFFTkCxaRC38CAoId/2YLuo/3Yc0jK9F3qh9GOoNkPIPOg50Yvjxqpt2usdgAYXpM2EycBbMDEM6ljeafjwLxMOBgCSJthA2gzGNWL5TyDFL9DaRRkuq7oII7g31u50SlRZCmg5O6KCoho9IwcF3hV0CQwFQDT95xwPCj1EEWYRTVGEOlEUCtY0yUPtZhFI1MPRhxFIUTSPXG4OyIQjsZQvJwEG09cfRHDHyEOAa25eNkuRuh/D0YKP15tEUbkIp5AT7CulllGdIAsge8DlQqJS0tohNDQKzdBAjUEihjJBHspdGCAgcCGFg6NgqAIMsdRS8GlWKwDhhFikwxmBqE2V6udSLd+407ULWmCr3HevHeNz+ctV25EYDAnVh690IMt45irHvmOvTdigAhd8Drt9Ri4bZ68XJRXRG8BR688YfviTRLiGZeN7FQa7HhS2tFiqXlxXM3sYWZ+YgNEGZmHLmV6wEE6m/ySr2CxfvCnz2C3hO9KK4rRnQ8htoN1YgHExg404+Lb7dh3WNr8OYfvovFuxux5ac24aPvHBUaJAXUE5GPpzJsgHA7A4T/GAdCw0AiYNLn3iKgpBoodQOcvBRRgSa1COx1IDwO6I2gfAQkI2AVKyrnQsUiqL+Vy2JWw2CxZKahEssOnXETJGhj0LQRrMIIFmoEBeMCIFQaI2jURrFE86MxE0HeeBLp7iiclyJIvzEKx+kYhkMpXAqk0JJIoqMM6C/S0FC4CE2lu3CkaCf+wbcVfscykzXgI8zOjXRgJHMgQQIFigm/aYokejGMTXgaOChOpOBQNmbKsgc55R3CLEmWOtIHQXR6lEyDhWUwNQhn5x0gEMtQ8EbPq5mkfnNvhTcKEPLK8oSO4Uo3p5u9zX4SAIL12ERAZYdzluzOwDKTM46b2R0bINzMqF35M1cCCLu+vh0nnj+Nhk012PLURsSCcQyeHcRQq1/odAbODaK0oQT1W+vw+u9OsFHm9W9g9UPL0f5hF7Z/dZNIN0bGooKxfOW330JhVX5WOMw9mi+AkF/mM4W8adgphhnUYUxOMfxyEhjpM9saMyB664DCpUBhvgkOigygUDP7HORLPQKDOVMPjHdkBAggrLHRKly09j5QXgiKWRBljxJwqC6MTDU4mfIYAwyKE4exhmBA86NWG0UV/GjSR7BcG0FTMgTfSALpzigc5yNI/+swHGeTCCYyODueQJeRxojbQGFdKdY7vWhM6ThUvwf/peIncShvNxDTgSjbRmeAhGZWOSiAwIoF0Yth2BQsiioLqTcgcyD8D4RN5ERTptzrN+ukSOZBdnqcBBDMNMPeXTqeeeLMvAOEmbtlXXtLNwoQZmO/PmkAYabH4HYHCIcPH8Hd99yPeCyGU6dOoKKiEl6vD+3tl1FYVIQli5fi6NGPEA6HUL5kAZr/zVYc++cTWLBwAVp+dPaGhvtW0iAwhcQUIzVGqz63XIh0T/7wtEgl8PVAX0hUGImFGnOnfk2tDlcrqS+Ct9grKn12/Ow2DF8axtF/PIV4MI54KDFvAGHTE+uwaGcTTv7LaXSf7BWVVdRJUadkpDI48r0TaNvfeUO/5c2sfPtrEAa7gNAlID4IeOuB/BVAXpkJCJhy8NFuWLIJBAYFptZPgAaCBL6mUg9Kc/CxYGlxXlTicWvJozAuUq2a6TMwChhDqMYQVguAMIpabQQ1ZBR0vwAIddEQfIMxpC5HED04Dt8HQbgvptETTuFkNIFhPYO4W8fGu3YAJYtxYSCNDwq24Ht5OzGqrwDiDiBBgJAGUgQI1CDIMs54PxDtMJkDvsjKBaElkCWLqrxRpBRyDlrmV822zxJUiCoGj1khoZgF+VkrQGBZ4/j4GLZv34mXX34Ba9asQ2VlFS61XsTl1ks3c/5O+sx8BwbujA0Qrk8LT/uHvs4G5vs8mG0GgQBh5647ERgfg9/vR2FhIXSHE+fOtiA/vwDxeByZTFqo/72FXtSsqcTGJ9ah/UAnzrxwAen4RIXL9X4Lj9crgMh8LLpLx+I7m9B9pBdrHl2Buo01cOW58MKvvSaYgFQiNWOsk+bQUL54Aeq31KFyRRlc+S6896f7EeE92FKRM1fjwLLgqtWVKKkrwsq9y9D6docQV/L2WlRTJPQ6yVgSh79zDIHu2RP+3goAYTr7QLbYWgUzwSAIDUIcGG0HIgQIfaatcMEqwFdhdnQUmjrDTCvkG6aIsZS/gOx4TJBAwMD0gLWzozpLGDvVQ6UacgGCAApS48DteCgGoN/AIBowhGXaKOoxhnptWDwWaX4s0UZQFQrC2x1D7GwInS8NorErhYKODFoCCZxMpRByAaUVJbjrsZ/Au9X34b93FuBstArJTDWQKDLBAZkDeiHQ+4AljhS+s54+1glE24B0QOoOVDMmJVCUBkhCgKEWCRYEQJDaA5F+kJ8luFCCjaxeYTKDUFVVg/z8fKxesxavvvJjpNMp3HvfA2i9dAHt7W3gzJc395td5jswcL+9Ph9iU6hiuNljnMrnbAZh/kvD+DtNJ5XFoHS1MsePPjqKlStXixsfATfZA/7mFy6cE6XCGzZuxtkzLZOqaVgmu+nL63H8+y2IjV894LMyp5iakCIvKpaW4dJr7QiOzV4Autr5vOy+xcLno2BBHoobihAZjeLSu21o/6BD+GnMtp/H4juasOKBpYKl8BZ74O8Yy5ZTU2ib9SWZygU5jXX4ezo8+sdSkAyaNeuqcPcv7sIPf+3HoECTYIK+KgRR/O1q1lYJvVX4JjU9goiZZrnuNA59IvLMSorhTMJo/plhID4CxHtNOt1dBbjrAScbEEl/ZSrvHXykgSI3UFU4WcRIkEBGgYw7A71KN6gqM0tnZNNkUBotqRQDQQH/z23w8y4ChBFAH0a9PoKV8KNBG0EjhtGgDWKxPoZFqWGUjwXh6Yoicy6M+NEA3MejMFqSOBpP4JwzDX9FIbZ88YsYr2jAq/3FeMlfBr9jKSKpWiBdZuoO1EMYKVGoSDYhBsS6zV4MtFUWDZmoOVCdG2WpYpY5sIgRFXsggABflxUOovJBWj+L15WgkQDBgWeeOG2nGGbiSpniNmyA8MkHCLk/9UyVOS7a3YjOg93CP4SXatnCUlHSW7m8HJ4CNxY0lWK4zS/Mt6KjURSUF2D/3xzKmoZN8RS86dWcHie2//QmUaLM4HTpjXZktLTwGuEOm89zsxAoLdzegMFLwyJVo+saKldVoH1/Fy6+c3nWQQqP8npljmQZWBbO31GURgvCVxOsi9OtCzB1/tVLWLC4BP62MQEWCFyZrrEaxF1tRG9fgNASMZq/wh8xaZoC0TFQ5MqZT8iYToJGVDYaYjdCL+DKA/ILgEqXacVcQjtmGdypRWDKQbAOEihkzZPk5Fn1dFCdIEVLZln2SIDBh4tK2VFAH0WFYwQbMIjFxiAW6oNo1IaxWB9FfXAY5SMheDpiSJ4JwTgdhutUDKkzSRxNJXDem0HLkkY4f+5X8JKeh1X7j2NHay8uuzbge/n3w+/baLo7EyAQjxAcpKlFoO/BuFneyIfoxcAxYRUCAQIDvdIdqJm86YhophTUaxIEKB2CejanTRNpCY1ljg4882UbIMzNLc38Fhsg2ADhaufbA791D/JKvHjvWweQV+zF7p9rxtCFERH8Dv79UTPv7nFg2f1LcPK501jY3ITgUBDDrf6PbZLBnEGJgaa4thDBwbDQAqRiaRGEKAp0eZ3CbfTOn28Ws+6WF84Jt9ErBSdu7+Hf/QwOfPswBs4NiVvJ9aoYZvu6yhUpMu3x0LMP4K0/fE+wGrPNZFwPIOQef27p9IafXIM1D68QpeHFtUXoPdkvfmt6v7T86AzGeoMi5cTf8UrL7QsQTgWN5qdOydw6+wq4zeBFcJAKyyAZApxFgGsB4CoGnCVm22JvCig1gCovUOkwNQp8kE1g0FfsgIiXilWgtTKl2JKBV6WSAhTIFAMBhptRexxwjKFYG8F29GEZ+rDYMYgmDGOJNoZa/zBK+0JwXo4gfiqE+MkwMidjKBzW0FmYwUhDOS49+jh+o3IFepJu7PnwFfzZsYO4rK/H79T+DA6W7DEBArFIlj2IA/EBIKGEidwPpk4UQMhxS8wyCFaAYFFoCq0BgYMyUJJGEvRYEMNigoq9u3UbIMz2XSxn+zZAsAHC1U45MgN1m6qx42vbhMNo7/F+nHiuRcwor2S+RZGio1CHxn+6JizCY9Lh9P7fvFvk7ff/1UHc8Qs7oGUMGLqOfd/6UFDyhVUF2POf7kawN4CeU/1CJMkbJMV1F9++PGkX6ZFx1y/uwlt/+K6c5Zpv32oAQdzaNA0/8ecP47Vn3xKgaDaXGwUIV9oXGq0RsPGZ3iMltUXCiZZW8AQ8/lY/3vrjfVl7d+s2bmOAEDCanzwpAQJ7BTCyiymu2XuAAj2yCGxn7CyWDYYoINQBlw/wFgMlBUA5k/00WdKAYqrQyATIgK+aNQnxXwZwMmhKhkEBBKYWaJZEoCBSFZzSmwyX6q5bAAAgAElEQVRCmTaELejHMm0Ay/R+LMEAliGA8sFhFHaG4DgfRuJECMPHw+g7F4U3pSGv1oOKZZW4uPsRPDneiEvaShR3XcbXOy6jN9OIH5bciZB7+QR7wJQH9QfJkKnDoPcBaQVR98fUCisWyCAo3UHWNtLie6DKF60lHBbgoBgGUaVGJDqhVxAiRZtBmM17yMdndjlWx3P65bfATX2+tSizLVLcv//AtH9SiuB4y+L96lr5dAKElY8sxaJdTaK3B5+D/UHhKOpwO+FvH8WinY3Y/zeH4SvxYsHCEpGmIPWtOxx45bdfF/MyMhOcpXL2SiFgzZoqkdZw5bvFLTMVS+LsKxdw/o3WScd2KwIE7iCrCejoOtvLTACEqzEDDHW0f1++ZwnCw2F0HPy4BfptDhBOmMFKtCNmGYHMnTPdkAqZOXjVd0B4A7AFcgzwLQXyFpugglbJNFWiA2OF7OEgKiAoOMyxalb6PSVMJNNAkSNTEgQWBAge5v4oUhxGrTaE9doAlmqDWKn1Yjn6sDwTQFHXCPLagnCcDSNxJIj2ExFcGIhjLJHBpsUFWLeuDK9FKvBs9U9jf8nnAX8EBWNRxJM+JLUSIMP21pb0AlW4yQAQZ2njgKWHAseFDIJnotGSqoUUqQKlJbA4KaqzTQAMmXawphiyZ6PJrNgAYbZvIR/fvs0g2AzCTJ11BAhpLYWGLXW4vK8D7jyXCPC+Eg/6Tg0iNBwGXTLbPugQqQS1kJEgCLG+pt5jNULZ4lIxY3X7nBi8MIzB8yNXpLlvVYAwU+N7ve3MFkDI/V7aoD/07B7xG3ce7BKln9WrKlC5ukowJZNYBV0TositT2/Avr88JNxpZ3OZScA/UcVwKmQ0P9ViQmTVgjg706XVcALIMIpKmlw0LBo2WQVnJeCtAdylgLsAcEmQQF0Cu0DSgZEBn7oEkUKQJkuKUWBKQdktC9MlJXSUIkVtRFQxLMMg1kiAsErvxXKjD4uio8i/PArPxTD0UyFEDwTRcTaG87Ek/AVurN21Hivv3Ip/6fLhz4w9OOe4w7RXpjCZh2NNLZCsSKSARBBIBmXPBTZkkt4F2SZLBAhyHKyNKQRAEHh5AixkUyqSafiYZkF+RL5tBQj19Q1CWb1u/Ua89+5bWLt2vSjL6u/vQ1vb5JnDzZxwM3ki3cz38zN2meP808LzfR58EhiEqZ7fs+2DwNSCaJZ2lcoKGyDMXS8GdqO9+5d2ij44tKVnDxzaU9PptPXdNlFJQbZp85fXoWFbvUgFUUtC06rRjlE4PE4kr+BGOdVz7WrrzeT1PAEQWsJG89Oyva8CBipvzj2hQC/DCCrbF4sGRhQ0srshH1HAWw3kLQG8ZSYgYJqhiiWQFptmAgQlYCSroASKVg0CqxfIOgjGgW6KJkDYqg1gJfqxWB/ASq0HK4x+VA6NoOBSCN7zYejHgwh/EEZPewIXtBTqPrsL43c9ih/olXjVX4K2ODs5NgBRuiXqJkggQBDVFFKDEB0FEmNAiva1PMa0pZWzEiYy/WKpPsj6H2TnAxbDJJlGUVoLrqKqG6w9KuT7VoBAzwM2Hlm3bgMOHNgvyhy3bN2O8+fOYnTUL0oc1c31Zk6qmTyRbub7bYBgjtp839RvhfNgutQsSxytZZIzVcVwo+f1bAOE6+3PfJ9L8+WkqMZlrhgE6+/AUlcubBRHzQob1W19ehPe/fP9IhVRu6EG3Ud6hGaF3W5TsRRW7FmKTNrAwb89cr2f9Ibfn8nr2cIgsIpBmu8IKtxSrqcCIJNwZBEIDEQXQ5cJHMKtQPQS4K4BCtYCvibA4wLydVOPQC2C6OOgxIeG6aNQwn4PspxR2DZLpoEAQWgXKMtlp78huPRB7NT6sVzrxxK9HyvRixWZQZT1jSDvXBiulhASHwUR2h/B8FgKncVA3U9+Bq9v+yr+2/giRCOVwKgLwhCBpkhJmiJRa8CkIn0P+AsngOig6SJJ3QWFmuJBYCDNjUSpIoWGSnuQozfIViVYtQk5v7G1G6YADNK1MSfFsHz5SoQjYVRWVOLYMfNEWr16rWAPptIB8Xpn1kyeSNf7rqu9bzMINkCYbQaBPggbNmyB1+vBiZPHUFFeiZLSUpw/dwaapmPb9h14/713kOT1P83FBgjz2256PgCC9ZThuVy7sRrj3QGsuH8JVnxmGbqO9uJ9Sz8bVp8s3Nkg7K3JInz0f45lq1umefqJj8/kfd0CEMaN5ieOAho7ORaYQjxlYqCYBNHZUNQBmoFT9BOA6TIYpcrWDbjLAXcZ4FkA+BaYlQzUFZARoKaAD9HPgY2gpCujEjKSMeD7qr+DAgjaELzaIHagFyK1oPdhFXqxMjOIkvYxuE4GkD4aRN/REHpPRDGiZVD9WD3CG2rxXeMz+E5gD4z4UiDgAGIeExTEaYBEAaYOZNi9kWWNMSDOXhTDZntnjoFqrKQaMwlwoHIjHCIpPpzUhWpi6Cb94LmMQe7ZYGsQZuL6uOFt2BqE21uDcODAIXz+848jPy8fb739OsrKykETsjfeeAWlpQsQjUZEi+bpGDWpk84GCDZAUOcRRahkFehFcSVha16pD4t2N5l9MDbX4Aff+LGwrJ7uMjsA4eSI0fz426YIz1VpljJyliyku0K+qSS85nSX+XgXIz9p+kEg2mkKGcnVM5h6aoE8ySQowaEqfxRgQbWQlkJG+icIu2bJMoiGTQQL7HswiDxtADvRjTVaD1bqvViDHqyIDyL/UgA4NC7slc+cCqGzLwVtWR5Wf3019ruC+Ltzq3Ek9gtAYr3Za4FuidSICN8DVixoJnuQSAKppFm1QG0FPR8cRbJqQZoiERSR5hBjoab+KtWQwxgoAab1175Sbx3razZAmO61cVOftwHC7Q0Qjhw5jh07diGRTKK/r1dYAdNu+cyZFmGss3v3XThw4APhtDidlB1PPhsg2ADhhoCmBlEV4Sn0YNndi7DvLw4i7I8gPHRzHVpngkGwOpJOMAgnhozmL7xozphd5RIgUCBAdT5pdmkORAAgShQJJMg0iJobIEr3xXEgQ0MlpgYqzQcrG9w+IM8hezXISgWmHKhNUH0diiVgoG6BQIH6BCeNiQg6hrBAH8QOvQ/r0IlVWg/WZPrRNDaAvHMBGB+MIfL+OM5fiCLu9GDxF+/BgWVefCc6gvd6tyMa/yKQWgqkdBMYKIEitQcECzECA4oSowDFl2lapdKnoRBw5svjV5ULVudEmYbJCfJZ7CCKQCRwYPmkdb1csHAFDcJNRbsb+NBMIs0b+NpJq9opBjvFMNsphpkoc5zq+W0DBBsg3BBAsJxYNM3a8vRGlNYX49xrFzF0cRgFVYUYPMdS+6kvM3lfnwAIxweM5i88b6YJaILE4KiCm2AVykz/A4r2mGZgTp6mSewFQPEiwUFq3Ayu1CnQL8GVL4NsAe+CJiOgAIGqbBCNniR7QCdGlkZW6yZ4cNK5cVyIFBdqQ9io92OD1o71WjdWJYZQ3tUH76kgjHf8SLwTwtBQCmVLy1H85FfxB1o5fj9aiOhYExBfCaRKTTEidQcECVnmgACBdsoDQJJdI0knkDSRngf0PRAAidoDaZWcrVLI+dGsfSaUKZTqOSG1ncJaWnWJvAKjYJc5Tv1CmKk1bQbh9mYQbIAwU1fK9bfzaRQpWkdlumJbmjMtvWch6jfXobimCGF/GLHxOLo+6hECR+oXEqEEdJcDmWQa7gI3UvGUeJ3zdoZspjToO6EWVkoITw2HLtiJkvri7Gey60STwtiLVRZH//FkttzWAhD6jObH/tH0RhazZkZzSZ8TGDBl4K6YcFck1U4GgYJG7pkwUwqYM/AMKw9kYyKCCOG+6DFZAaYbCA4IDGIRkyUopLmSGyh1mGWRDTpQQzARB5zj0PUhrMcA1mk92KC3YT16sDziR/6FPmiHxxB9YxTRExoy9VUoe/BudDub8Bup9Xhd3wgE3EDEBWQcJjCIEsw4zG6NWfYgDMT6geSgxSiK4IaeB3myzFGCg0kWypMFhiawkD4OymlZWiNk2QPh1igbQalfRwEGlWL4kmm1XF1dg5GRYezceQf27XtXNJwpLCxCd3cXenq6rn+1XmeNmUSaN7szNoNgMwg2g3CzV8/HP2dXMcxdmeOVfrXpAoTsNmkbVOAWGob6zbWI+KMobSyG0+MQJlpOlwOpZBqefLewgWb7baWPzyQzwvFRLYlYSmggaLrF8tiiqoLsZ7IAIZbKAoT2/Z1m7xEAkwHCo9+ToEAZ+kjtAdkDTwPgqZZNilhuYKHaRQlkHMiQomfuhFN1pfaXEZK9G7z5ZmWDMEMCEA4DmTTgdQOFTqDEaTZ+on9CA4BaDVgQgcPZhbu1S9hkXMZarROrjD40jY7BfXoIfR/GsS/QDL+nFonCUsSLFmAoksSrsQZ0p7bDCLqAhNPs0EiXz6js1shdjCeBaABI0kqaDAi7NVJ8yV4TdEyUYs1sD4UrCAssFQimKyRtEKSvgwIH6pkjToAgdZ7ZdtLK1lsBhMdNgMDgmZeXL9o8Hz58UORON2/eKnraRyJhkS+dTs7UBgjm5WEzCPPLIPA3mO6NlbSuXeY4/2DTZhC0GRG7TgcyzuR9fTJAeOQfTM2B6A+QluV8TlNLwNbPnjozZSBod0ubYeGJII2UWAIpXAMlQKCfAHUJTEWQgSjIN9kDBkmKAtMsl+R7kllgioFOjHUAFgNYGIezsA17HaexE+exRu/FokQ/KnrGEDqZwHODX4Z+9jjuGWzH4Qe+hN+uWodwTxyfj4+gNVCED/13AUmX+X0ECKxkUv0WInRLHDMBQiZmukIKF0mKEwvkw1LNkfur5VYyKnDAZ+oYZbWoeFaMAtkC5dqogAK3K9MNe3fqeObxFgEQnE6XaGG7bdt2HDz4ofj2DRs34eKF84hEbl7Eog5jJk+kmz2h53vGw/2e79Ko+QYot8J5MF2AkHv+zZcPwnyfz/N9Ls33tTTf5/JMn8c3c1+dyX2YAAjHeo3mR/5e7g91BmzDzCDvAdwLzNbPTj7Yi4HaA+UmaGk6JIAFEyGym6Ho9URmgapAA3AVAh5WP8guhqJsUgINAgTqE+ibwOwG+5TUpYElGrS6EWwvvYQ7vGdwN85izfhFeM8E8NyZR7Dg0GtoGmjBsi1L8fL6p/AfehcjllgKRygfj/oO4djwErSPrzRn7oypKignDSDC9tbDQCoIaFIlSGDA4xNASPZcsJYnXpFXki8KECDNnxRAUO2tlVMkV1WmTKqDJLdvdmeFAAg/aQKE2Vh03YHy8nIUl5Sgo70NxcUl4msWLlqCo0cOCWOm2V5qa+sQCIyDzxcunMeWLdsQCATg8XjQ0nJytr8enOXQhKq8vAKXLl1AOBxGY+NCMS5Hj34069/PLyAr1NXVKUru6GtRU10Ll9slnDLPnj096/vA8r5UKoklS5bh+PGj2LFjN86dO4P6+nq0tJya9e/njZxOoVwGBvqF+n/lyjVmc6K2yxgcHJjWPswlQOBY8ny+86578e47b2LTpq1ob7+M+vpGnDx5bFrHMZUP19TUoL+/H6tXr8Hp0y3ieurs7MCq1WuFA+tsL1VV1cK4bcWKVYLdLCkpFWWjCxcuEufUbC+8hugLs2zZcpw4cQwejxeJRBwPfu5hvPzjF2b767P30MWLlwi/mu3bd6CtrQ3V1dViPGZ7yc/Ph8+Xh6amRTh69DDWrFmPUDiI5ctW4LXXXp7W11sAQo/R/PD/lhuTwZIggOWMnFG7SgAHxYsMoIUWjwAGUTlVFkkQqdzPCvFkR0i+TuEEPQ4ULW/JvQtWgaWOBA9cfAZQLtMMi8LwLO7HnpLTeBr7sGvgJPoP5eFY51bc9fI3sei+BYhU5+HPhlfjj+JPI4JdQNKDwuQA7i88ih92PgjEaJAkKX6CBZY4xgbNfgtML1iPlV0qBUDgzlhoglzGIDe9wNSCYgqUM6QCBup1pR0hUKEHFB+CTTEPWwCEn5g9gMCLZ9GiJSgsLEBhYTGOHj2ETZu34eyZFpHOuHxZmmVN67S69ofXrF2PZCKBFStX4Y3XX8FDex9DZ0e7qEefK4Cw54EH0dfbA7/fL0re6uobEQyM4+DB/YK1me3l85//IkZGBgUwYjBcvmwlMjAw6vejpWX2byoMakuXLYfP6xPpq4ceekSApdraerzyyouzTpNypr158zbw5sbzrrX1IoqKioWr5MWL59HX1zutn2AuAcLixUsxONiPeDwugGfpgjI0NS7EyZPH0dXVMa3jmMqHGRgIenk9vfXm69i16w5cunQRTU0L8d57b09lE9Nah54SBNd1dfVCK3X//Z8VwGDtug34wfP/PK1tT+XDZWUVaGpqQlFxCQ4d/BB3330vXnnlJTz88Ofxwgs/mMomprUOJ1mrVq+BQ3cIgPDgg3sFyK2orMTrr70869cSJxVbt21HJBwRkwtq1i5cOIetW7fj+ef/eVrfnwMQ/l/LQKmeDAQIFOuRcs8zc/MECcJESD6rzobCdVC2cOaWrDNvBkY6KXJGbb3/ch0GUQIEMghcGHjJIhAwMN1QFQaWjqGhrhM/n7cP947vx+X366CdDeEx/z5kttfgoAF88+Ji/CjzdaQcO6T5kYGm4HfRlfgsMqlyk0UQ/RfSQCJhGiIl+s3KC6U5EKJKAgSKE6VNshoVqwTBCoRkNeikVAL3X4EDxSZYUw2iokKmPURVhTlee3foeOYLswcQeCicuVVUVCEYDIgOcgwSXDo62zA2Ojqti2UqH66uqUUmncaKlatx8sQxbNiwScx4qLmYi9kzKThaVrucTvG95my2UQSnd+dgxsUx2r59p5h1udxujPpHUFNTB79/RMy+jh+fefvV3N+FVHRtXT0WLVyMI0cOC7DgHx7G4iVL8c47b07lZ5z2OnQKLSgoRDgcEjNwBhgCJgJFsivTWeYSIHAGGwqFxAx6ZGRIzCgJxOnMOBeAl2PIm8fWbc04euQj0bvl4oVzIHChv8NsL7xuKJ6mJTzZKBMwDYgZ/dtvvzHbX59lBJcuW4Hjx46I+1tXd6dgct5/7+1ZB/y8lhqbFqKhvlFcS2TlxsfHBIMyF9cS0zrLV6zKOu7yOiKDU1NTK1LTtOi/2eUaAIGBmkJEGgORSZCKftGwKE/S7xTyec2UAsEBqx2oT8iddTMw0j5ZzZ4lqZAFA6I/gwyoBA8Mruq1fPZxiAG1MWgNAdxfdQZ35h/HggMuLGs/js9WDuKlaBP+crAG7w2vRDCzC0CjOR4MvJ1/B3g/C2g1smohDUTHgAT9DsJSVMmyTR4TxYkEPWQPeFw57MEkgCCZEH6PKmVU2gM+M2Wi/paazuzf3A6PU1RVSF8GUd0gAcJjswsQbvZksT9nj8AnZQTmEiB8UsbE3k97BG50BHKqGL5jehoI90SmC6QsX4AEi1kSdQk0StIIFphicJrv032RFQ/0DVCLCJaaGTC5qLSC7K0+0X/BwjioRk0ECgIsaEAxrZnjQH03Gut78Ojpj7D2zD58YZULv9G2G//H/xAy4XIgUQCknOb3xOJA598A+V8FtEKpQ4gBEZY0+s1jFU2+XRYApICQ5Ris/gZZVkSyIQogqEoFxRKQNbgSQFBZC25H9H+YnGrYu13HM49OHSDMtyjqRk84e317BOZiBG4UIDDNFAzSIM1e7BGwR0CNgKUXw5jR/MQB2ep4FMhI2+RJkV6mHRSLQPaAs27xzEexqVXQWeUgXQYZEJlaYOBUXRMVUOBrBAOyOaII6gys2U6Osi8DtyHWiwKlfqA6hOZEKxrffBELl1Xhfw9txUh0FxDNAxIu2YCJBozvA8FeIP/LJmAQ/RfCQLQPSI5MuESKygWZOsm2dL5KekGQCpJZsDIHfEmBA9V4iq8pLYLSICiNhdIvECSQSWCFRRLYu03HM3uvDBA2PbFe0OGpRAonnzstcktf/erXcPHiBVRUVIpSMeYi05kMDh3cL0QrpL6Gh4dQXFQiKG1S2MPDg3NGpduXmj0C8zEC1wIIteurUbO2WuxW50ddGLowgr0PPYrhkWFQaNbf14flK1bi3XffxIaNW/D8c/+En/23PyesmZlOoF5n0eIloracKTEKEu3FHoHbcQQmAMKZpNH8tXFTuBdrB2Jd0lWQ1srSPVE4KKrOhmQOSMtTl6DKAhlkCRg4C6efgMMEBwQASqlv1R+QHaAnAt/n6wQQ1CLwddn2wAywsj+DI2O2f/YmoDkjyDv/OtDfhnD9U0C83hQi0gSJOoNoFzD8POB7CsKeUeT8aakcBuL9QGrIBDFCS8H9loZOomvjhAuVNVsiGAGBDywAwcogWDUHVgZBlTsqLYIFYyjtgUg1JIC9m3U889krAwT2HzcFngaiY6wMgQABHrcHXp8X3d3d0DQDS5YsF/ls5nYdTidKikuwYEGZABcU5VFQ1d/fdzuez/Yx2SMgRuBaAMHlc8HplS16I0nhKsd8MZXwFPb19vSguLgYo2NjaGhoFIIv6ma6OjuwZMlSDA0NiqoXCvGoNRgYsK8l+7S7PUdgAiBcSBvN30gCo0Eg1Gaq++mOqNo70+eAHgei9TPLGAkAZN5eBFfqDyRgEEHXA7hcZlMmNVtWIIBggUGT2hoCAdUckespLQJfzyr/Jciw5vKJKGIhoOM9YLQHcC40dQbxGBBqNRtI5T0OaLWyGRPXpylSBEj5gdSoqbGg5kBUZhSbQEfYKCsgIMmCSX/L47G+Zk0vcB/VflrdFFWaQjENCmyQQVBlj9QgbNTxzP1TTzHcnqelfVT2CExvBG40xTC9b7M/bY/A7TkCEwChLW00/04SCBmAPwCMDQPRYVPhnyYHThYhKX0NEtKSWAn72NRIlkCK2bgP8PChm8FS9SFQ4kQGSYoQyRao2bVIRUjAkGtTzGBKoKHy9yKgMl3A/dGBUD8w0goE/EDaA2SqAfcqIOOdcC4kmKDnQTJgHgP5fCG+5L5TlMgHdRUWAJAFAfI/uaBA/W3VHVjBgXrd+jmeR+r4pB+VYFckeNq7Qccz99kA4fa83OyjmqsRsAHCXI20/T238whMAISOtNH8p3Q2lKI5vwEM+4HRDiBN/puphpTZ0pn9FjjNFtoDsgUMstJciEDBXQCQwiMI4KK8d1R6gewAwYEK+GQQ+BrX/9isW4oBub7qssztMY0QkT0NuN1IAhhnhQL9DtiO2mV+L/0OkmkgNgrEB0z2QFRnyGZMWXDAvhJ83VKVoMCCNSWg/p9ro6x0ByqNYC1t5Gesng/qGBWjwvf5/wywd72OZ+6xAcLtfNHZxzb7I2ADhNkfY/sbbv8RmAAIXWmj+a+kTTIDGLse9qSAtl6AlsRp2inLB2fgwjWRlQ6OCYAgmjKVAqyrV2yADHzZWTIDK9MIDPjKP4B/K3Cg0v+q6ZGi5Lk9q9BRGA3JzogEC8EEMMY0gtO0b3ayrZWsZIhHTOYgMQKkAxLUqPQImQOCA/eE74ESHwqNgiXdoM4HBSKsYMYKEJQwUaUVrN0bFbBQrIKq5lA+CBt0fO9nYzhxYvbNcm7/09s+QnsE7BGwR8AegZsdgXXr1gk9jnawL2M0/3+SQVACwWEDOJsGOvqBeMhkEEQPBk2mGiKy9TMZBLZ3LgG8pYCPAVoCADU7lnhCsAZKiKiCpfpbBV5p5CiaHql1ZHNJEfSlZ4BIMzDAsgJgLA6Mky1wm/bN/P50xmzGFA9K5oNAJ2amFATjoUyfLKZIWQbhCloDNcpWzYGyUubnVJrEKka0sgf8fxZ8WH4yBaLopEiA8DUbINzsCW1/zh4BewTsEbBHYGZGYAIgDGaM5ufJEMggRoMiBq4uA3inBxhj0yXph0BfBDZoyhAgqFx+HuAuAfI9JntgXZSRE4Mj3yNjoPLzij3gjJ8LX1ezamswJcPA15UtsSiZNMxUA8uX/UkgkDY1CGrmn0wCkSGpO4iaDaW4EZZjZisvWHEhaw/VrF6xF0ofobwPrGwC38tNIwhDKAkUFDtiZQquBBDUNgl66KS4Ucezd57Gw498YWZ+YXsr9gh8Ckfgj/7n76O+vg5//Cd/joMHD38KR8A+ZHsEpj8CX/ri4/iTP/kf0A72Z4zm7yfNWTBn7gzcfDCfv38EOBUCooWyekFaKjNai9SDDjjcgMcBFMiZt2IMGCBVwOf2CBBUUFRaBAZ/NjlSi2psrQI0P8/PKrW/Ej2m2HCJ7IEBjLJ1M4Ms902Ch1QKiPYCiSETyFgdH2mnLEyepAmDtcqA+6K+W1VgqPet3gdKQ5FrkmT1Q1AMihoDtT0FFtT2VC8GihTvsDUI0z+17S18mkfA1iB8mn99+9hnagQmNAg9KaP578KAUwfyXUC+DhQzoKeBM1HgnRAwyhaLLHOUICBXJ6CqEpT4js8KDKjUgujkKMsHaX5EcECnRRU4hV8CO0laOiPyaDlbVwyCyumHKErMAP4MEDCAlLWLJP+OATEChAFAy5gGTsK3gQxC6WRwwO9QIMCa2sgFCCoFIYCU5TPKA8Fa2aCCP7et9tn6y1lTKlLIKaoY7rIBwkyd4DeyHW9RGR69ZweOHHgPrYOmq97ClWvQ092LJ+/biB9dSsIz0IKBkbEpbbZ2/R0YatmH5Oz3fprS/nyaVrIBwq3xa//Ent14/g2zH0TGkYc9O1bg7f2n4HY7RHMr8borD9tXL4I7OoIToSIYw62IJDJYs2kzLre2whcdh5/pZHuZ8xGYDBC+zSk4QYEL8GmmeyG7KtIH5P0QMJw/0YBJBW0GUwZHBnqyA6qdsprlM0jyfTIAqj8BP8sASx8EphYUaFA3UhVMrQFWBV5VEsgThlULikGgDiFNoKGbqYdkCEiOm50aWaopxJT0O5CmSKLRlCqLsLSPEJoCS1dGxYCoGT//tnZotAoWlZ+DAhtXAwhKiKmOV40VNQj0QbABwpxfCPzCwsom/NTdq3G2L4y123YhPEVPVKMAACAASURBVNKDQDSJl956H7/6M09hMGygI5pCDQIYGo6isaEIzjjQW7cKaxK9aD9/Do6GDXCOX0ZrfwpF63fh7W/+mtiGvcztCNgAYW7H+0rfliluxDd++ZeQHr6EsVAKowknNi4txvCxAzhkLMU9S1zo6w8iWVKJZb4Iuo6+hX3O7Xh0pRf+oVGkKleiMS+Ig899F++2Dc//AX0K98ACEDJG899JDYIIWAbgzgCeDDDuAI7FAb/HfF05CQkqXZtorsQAqQSECvCpEkaCDRUwVfdGghBVpaCcFhXjYAWMnF1byw/5d1gCBFZchnTTrlitl4yangepMVMrwTfoeSDaVMuulCzPtHZrtKYYFOhRDIEq08xNJVhTDLmVDZaMSbarpRo6hUtk5ULWZVID9m6yAcJ8XYe+4go8/sBuHDp0GEu33Ing6CDyXE68eeAI7l5ejq7eKJJ1S7ClIQ+nO0YRG2jH5i2b0eMtQ1mwF8ODQ/BULYUj2I1jZ/qRt3g1Ai1vIhg1Z0r2MncjYAOEuRvrq33Tyj1PoP/Ie3jowV04fuoS4u4FuHPzYpx/7zW0ohJ3rqpEa2snkkXVWNlQhlKHgePdASxdvhgLYqN4/9IAFlV5EbjYgnfOTK+75/yPxidzDyYAQnfGaP62rGJgQIzTOTFlzpaDDqA9DYQ80tNAVheIoCpdDlXVgppxqwBP1kClEtQsnGxCkWQe1OxZfU7oByyDKdIKLKeUYIRvkT0IUnfAfaJQ0WkBJmzlPG7qDsgeWJsxCdaAAIF2yhZhohUcKIFjbiWC2ncFGhQzYj1uK0iwihOV/oDPqjSS27OmHYhj6INAq2XbB+GTeTXZe33LjIANEG6Zn8LekU/wCHzcKIn0PGn/FANtGkhlzGAc9gAx3UwhqECoKgko6lPWyNaZP4MhdQlMJfD/fI/r0dGYzogMsiolYa0UUDNrDqwoAZRvcmZPfQInZNQcjKSBuFNWNlBzQCOnGJAcA5KjZmqBls/sDSEMkZheoNCSWgUZwa3MhNVFUVUpWDUI1v4KiulQgkTFLiiAo7abmzZRugxVHqkaWPGYWMWwxXZS/ARfT/au3yIjYAOEW+SHsHfjEz0CEwChNWU0P8uEvgQAaQIEGYyTzOsz0MrcvJr9MqhZg7l11q06M7IZExkENXMmYCB7oOh5FSCVFwADq6qAsIIDEdDl/kTTQFAHxjUTLIjWyXyPuoMQkKI9dBAwoqYwUfkeCPaA9IVFXJitTsgxRVLHooCAlUHINUiy9pKwlkIq0GPxOZjU54Hr8lg5hqzApAaBAMHuxfCJvqjsnZ//EbABwvz/BvYefPJHYAIgXEobzb/F5kw0H6LIL2NS+WkdMCjwc5hBXdX5i/bJMriRHldAwUqh8/8UL6rPESywMsJrKSNUNLu1FXQWNPD7pXaB7AH3hzrKED0PaILknmjtTMYjOggk2D+CikUGfN1MKaiGTGQQ6OGQCxAIfKxMgprdW30Y1GdU9YICAkqwaAUG1vPCChKURsL6XaoyQ6UYCBAesKsYPvmXln0E8zkCNkCYz9G3v/t2GYEJgHAxbTT/J6lBEH4DpOyVh4HUCzA4irJEi+0xAxtnvwQLchacdT+0zrT5mRIArJSkOFExCBxJa1kk/xZpBwkOVP6egTiSAsIZgOWNTHukvCaAEYCGpkhdQLwLyEi3RFG1QNaA4kSmF4ThwgRA4P+EpiCnQZM1baAYBrWuYhayzIOlqkExKxYdZ1ZnoI7R+jmlu+DxKqOkrTZAuF0uLvs45m8EbIAwf2Nvf/PtMwKT2z3/qgQIKnBZBYRqpqz6DKi2xsrZkAGOs3sZ6CbNyFVwJbtPkMAHNQiWKsOsQyLXVeBEzb5VaSOZg6AsbYxTJ+EyTZoSUSARBOL9pucBaQcaIdH62WqnLISJEgwoRkCwBBYGIRcIKGZAsQpW0MPXuG+qDwM/qyoerCJFlTJR32l9Vh0dVS8GAoTPfLoYBE3TYIjqmPlZPu3fPz+jPvlbdV1HJjNzhhHzBRA+7efSp/345/tamunraAIgnE8bzd9ImrN3K12uyhCVQE+J9xSLYA12BAgx+VApByXeU7Q6NQiCSZBujSqQKrGiyMlL9kDNthX4CLNqgUCEYkX1YKphxGzExLJGNmNi5YKzbAIgCPZAdXuy6A+s4MBqeqQCvjXFoHQGuaJExRao47DGOZU+Ua/llj4qACaqRqRIcbuOZz47dwCBF7QgPuYxQHs8nqxpynxcYG63G4mEor/mfg+cTidSFNjO0zLTN5WbOQyfz4doVPqw3MwGcj4zXwDB6/UiFuNNcH6W653LokjL6UCaHW55K9Q1OFy6qF53OPls3qySsVTW84br6A5d3FZTcTUD+vjx6U4dDs2BJNnceVocDgfS1M9ZFu47j8tQYvdZ3Lf5Bkh5eXmIRKSWcAaOczJAUAyCVZGvArtVtKdYBLWeCp4KFDDYcR95nagUgbVKgUw/QYJVjyCEhnIGrpowKSaDXRvJGLCkkf4HSYkchLgvAUR7ZFkjvzRheh64CBAWmBUMtFRm++esQlCCIAUQrMerGIIrpRKs/RcUo8D9tpZm5oosc8sd+aOp9a3MghUgzCGDcDsBhJ1f24qTPzyD8MiNXSDXu6nOwHV2zU3YAAGwAcLMnGXXO5erVlZg61c24aXfek184frPr8bGx9ciEU3BSwdd6rYAPP8rLyLQZ7qJLr9/MbZ9ZTN4r/ju155DhpVtOUtxXaFY590/2n/LAYQdX9uCoYt+tL7XNjODfI2t3N4A4VekUZLVEVAFRcZXxSKoWKvq+q0qfuWKyAkZAQKfGQjVsyrz42dU4yZWOYgGT2wQJTs08k+hhaApElkCzXyOkTmQFAeBRCICxLvN9AL7LZDzZ1rBXWWCBIIFChN1ljZabJ4FKLBoD6yAwFrOaPU9yGVTFNOiUiDyELJW0tYKDQV21HGpzyiwy12nUdI2m0G42au4tLEYgf4Q0izPvYHlejfVG9jUTa1qAwQbINzUiXOFD13vXCYb4PQ4kZTunmQP+DeJA93BVJ+50UQ4kZ1xkxngOur1K+0rA6PD44CW1m45gOB0O5DJGFcENjM17mo7tzdA+EUCBOmDoOh1a4dCFUSVdkCxAop2FyJGWS6YtRE2TKDAwgJO7FTlA+/hCnworwRZgZh1HiRDwF4LBAb8vAAHDhNwCPU/Ky0CQKwLSNAPOmOCAfZa8FQDrgpAc5qo2ErvC1bE2k/C0l2S71mPU9ki8wxQ+6vGRgEEi1WyOFGULkFVKFjfVyWPCiCocZIVDnupQXjQTjHM9IV7re1d76Y62/tiAwQbIMzUOTbf57LL5brlAMJMje1UtnP7AwRWD9AoSQVBlU6g5sCah1e0PEdN0e1cx2MJvGQF+JoI9HRkpAOiBAtZRiEDuHSAJZA0VCLIUIFXlDSmJXPABJgFHKRTQHwMSIwBKWmrLFwTvaZAUQCEMtlcanJ2wRRQyv20OiHmphesvg5W9kCdKdaeClZDJDUmqnLBWsJp1SUo4GBxVLQZhKlchjO7znzfVG2AYAOEmTqj5/tctgHC/AquZ1eD8MtSpHilFANn9+p1a/7dmpe3/p8dGqk14EMxDmQBCBIoNCRQsOoUVOtnAgUCCwIVrhNgaSPTDi4gwxQE38uYwCA2IIWJUcCg9sBtphfYqdFdaTIJXBR7oESPCiBYKxKs5YcKDClmRO2/1eNBrW8N8lamwOp/kC0XlfuiWARrKk9qNQRAsDUIM3W/nNJ25vumagOE2wsgwGVgy9MbcPBvj+K+X78Tg+eH0LClDk6XA+996wBW3L9ECP4Kq4uQSaUR9kdRsWQBMmljgsqPJuEiZa/rCAwE4XA6UFCZDyOdQTycgCdf5GQnLYlI0tRnS0qd90qHe4ICTUYTQqA4dHEYRTXFePXZN68o3Msr8+HuX9wlBIlMO7z67Nvie9Y9ugrL7lsCbiceTqKougDh4Yj4DpfPhbf+x/vY/MQ6FFQWgMJX3e1AbDwKX7EPqUQaP/6vryNF8eMsLrkixc/+X/ei/8wg6jfXinEurMhH5+FunHj+9Kzsxe3NIBAgKGMi6yyZAZIAgedkriEQzz++btUhiJJICRAUsFBBlucHgQGtkgUAkOwCKxf0DFDoMEFFImOuF2J6IWk6IDLoEjhQ8R3rA2I9QJr9FiQCoCCR3gcsb3SVm//PBQi5ZY0q6Fu1BlYRpqpoUGJNtT31t9X1Uf1fMQJK85CrRchNL1jWFymGz81sioH5w4U7G3Dp3bbJ3ThFhaddxTAJIAh/LR0ZgtA5Wj6NAIFBxaoVud1Eiu48FxiwPYVuURHgyXeLioHoeEwEcGZyCQBEbjxtiP8LHYDTvMFSCKiT5dQ1MU5U4HsK3EgnM0in0nC4rLlP80TlOevN8yLB5mD8LDeo7o18P5mG5tCRCCfh8joQHb96EzF+l+bQBDBRol/um6/EK7YjevnluxAPEnToAkhERmPIK/Iho8l91zSk4ilT45AxEPHPXJXK1S7NXIDgLfYIoONkpYa83xGszBZQub0Bwi9ZfBBUIOT5StqfIECJE62zbSU2tM6yBTUvzZCU86JiHdR6DJoEACMGMCYFjVKoZ57tUq9A/QJdHQmNeVYK9iAMxHvNBy2V6W8g2AMaIxUBjiIzzUA2IRcgiFTBFZwTVapBHa/1b76m/rYCBLWfVsGhqtrgewLQWIygFGDI1SGodZVIce/MAgTerNY8vALHv9+SFSGpC2yqAIGzF15UscCNdSZ057vh8jqvWVlQUJyP0HhY3Eh4Q5nrxQoQqtdUYuGORhz49kdzthtWgMAbLQOGdWFgqVpdgf6WwVnZp/koc3zk9z+L1559S8xEudxuAGFWfqgpbHS+2TA7xXA7pxisAEGV76m0gbIRmETTS9Cg7IfVrNqay2eqwVr9YKXvGSjJIowbJpPA1APjj2oZTZ0CH6J+lekFihIjpilSoh9I9gGZiFnK6OCDwIBNmQpNoMDyRitAyIoLLVbP6ngE6yEZkisdjzXtkpteUKkFaypBlTKq16zlngogKICh/taBvfRBeHhmAcK17itTBQiN2+sQG49j8PyN9WVnZUFhVQE6D/dcdTe+8KcP48XffAX3/+e78e4f77vmzGYK98gbXsV6U+V4cOZ0pVKuG97wFD+gAAKB1Of/eC+e/8UXkLaUknHGufUrGwVlPRu13PMBEOaSQfjoyDE89thPoLioBG+//QY2btyMN998FYWFRejqmtk2wre6D8IUT8mbXs0GCLczQFBGSdacvQqaVpFi7vtKWGg1BFLVD+JzMiCrmbjK7fNZMQVCkGjRJyhXRgEQZO4+ETd1BzRFInOQoahBljVmQQJNkcgksGuje7L+QKQRpADzauWLKqWg3rfuq5rpq8vnShUJipnm51QjJisgUOWOymDJKmRks6ZmHc88YgKExsYm1Nc3ijxkKpnE0NAgeAPio7KqGq+8/OIVL+S1j6xEoD94zaB8owzCjd4xWD7lLnAjOjrZNKapuQHVa6tw0DJD9+X7EA1HBU2ZO3u2fm/zT29Gy4vnRN5zJpcrzboe+YMH8TJzptcwhpmpfVAAgadmfkU+Nn95PVpeOIex7nGsfnC5OOYbXXb9u224+M5lDF0Yue5HZxIgkJqOh27cdGo6DELNmko0bq8XAEotVqOkAwcO4Yknv4IP9+8T6aPKqiqcO3saS5YsF/+vranDd7/7HcTjMZCi5jpXW8jm3Pebu+HK542NtH0GBgyRqiPVrhka0qmUYMwKqwvRvr8LdZuq8dbv7RPgrnpdJZY/sFgwJ2dfuoCGLbU4/a/nr/kbLd2zCPHxOLoO9173t5wqg8Brbc9/vVukMQ5++xhG20njfnwpW1qKrV/diLf/YB8SdLK9xtLQXIuiikKcfvHax3Pdg7iJFTY+uRY1aysx2jmO4voikW4xUhmcffkSeo6wwg2oXF2BkoYiQUY3NddDdznENVZQni/YS+pBeP/h2PC9dDwl/j79o3OoWlWBE/985rp7tunptTj70kXExm6Mab3uhqe4wnSuI3E+ZzKTTOMmWy3/etKcvVv9AhQboFIF1nJBbtEaUJVtMF8nsOBnFLBwMSfGN5hok6yCNQjzLX73mAGMklWwWDeroBsLAuE2M7UgShodps+BcErMl//3mmwCGQSeCVxUBYLKx+WWK1pLGxWwsaYYFEhQWgEV8FW5vUolWIWJCghYUwxWUyUFELh/lpbXgkF4zAQI69dvEj9YYWEhXC43CgoLcPjQAaxfvxFV1TX47j/8vbihKRZAnUN5C3xiBny9dABTD8moSekrB7UFTSVYuLsJR797Ak7mRTOGyHuKn9rtEEPJHN71looVZaheXYlTPzg7aVV1I6WTG2+ou76+HUf+9gSikWvnJ3f9+2248GaruJGVLy0T+xAeCl/1GHf/fDNafnAGGx5fKy7y/X916Kq6ApfbjWSOkyKPfS7AAQdnxWeXIhlO4vK+DjFWJQ3FiI5GxU2qZn0lLr9rvn4jC1kQXiK5Dpn55XlmuseSxeANMjRMsH31ZefXt+Hgt49cl1lZ95OrcOHV1hsGCVe6sTEY7/4P24WL3wd/cXASq2LdU1eeCwVVeRi6OAGGrADh4MHDWLhwkcj3B4MBFBUVoaenG0VFxaitrcPw8BD8fj+i0SkATw2oWFqW1QAIrQozlmSeNA2cQcdj8azuIDgYQl6pL7tvBM0FFfmCFaUREXP6wcFrj31+WZ7QHZDBu94yVYDAfWU6jaLHkfaxrC9C7vYpPixbWILBC8PXBO/8nLfIA1+BD6O9VwYb19v36bxfXFsIX4lP6CvceU6p7cggPBQRug8u1EzweJipLijPE+dVLBgXKVBqOgSoyBhCK8L3yOIZmYz4nbyFHuGxcr2lqKYIoaHQda+T623nZt+fvSqGC2mj+TckQBARwxJYlUlSroqf61hpeX7OChIUeFBggfFa3ZiUURHTBryZKV0AW0wz3cBzjNeNtaV0NAREOs30gqAV6HEgtQcEBcIQiYCBAIGdGyVAEPoHSw8GpYdQx8OoZ+3SqECNSklYBYpKb2A1R7oSQMjVH1hZhNxfX4EIQzIIEiBc7SSpqKxEfn4B2tsuZ1cRNx2i5OXlGLw4jNA1bjpkGM6+chHbvrIRx/+lRQiNVCDxFHqw6+vbsP+vD2HlA8vQf3YQA2eHxLZXPLAERgYiUKulpL5IXJSRUTPA122sQc+JPvE7c58W7mzEeE8APcf7PhageSHWb6rB0Bm/QK0EIMrAhdtyep1ZMREDNlE+Qc+SuxcJW1i6wr3/rQOThok3qa1Pb8SHkqGo21CNJXctxMV32tB9ZPIMjCxHcX0x8gq86DndPyv0/VQudLfXjVSSsxUTiDFoPPCf70HHwa6Pqa154+J+Cytcgon6YkTHolcMyJu+vA4n/qUle2Pn5z732/fjtd99RwjouPCGed+v3oFXf8dUqucuW5/egHOvXURxXTF6T358jDZ+aR1OPjfxHerzVLinOLtOZZBXloeRy/5rDgUBQlpPY9GuRpx//ZK5rgbUb6oVN+zuo71Y9eAyXHij9YoAlWDTmhayrZancubN/Dp2iuF2TTGobo5xKQjkuaMMf1R+Xs34c0WK1vy8+pzKy6v3LK0QxHatBkHqPFUTUzKUqsMhAcL/z957wMdxXVfjZ8tsL+i9V4IEO2mKpChKpArVuyzZThzHluMkVmzHdtzinuIkn504+Tv57Dj/RI6rbMtqFkUVy6JEUiwgSIAkAILovS0W2/t+v3vfDLCESAIgAC4l7ZNhgLsz82bezLx73r3nnssiSbKsMoUXwpOiYiMpJ5IQEnsPDCKkQICBQAKXdk4UQ0pQTVQAQqLg0WydB+WaE8MpCsBJ1DKgeVbhGySGHBSAoAAm5TvFO5P4biphhpgMEO5bOAeh9Jpi5NZkQWuS0PizpmnUnGhklS5p276jA2yQyIhve3Qz3viPw9NGPvHUKneUIhKKYfj0CHZ9ZgcbrLGz49MGqvaWanhGPOyqSy+yo/aWGvz+O6+z14GMdeHafPZI7P/uwQuuUsjgUS2GqpvKQOCk8RdN2P25nTj6v8dRu7sKfccHGWBQHH7rRzdj79deeUsmxuxpjlaUYdkA0nfs+lXRCkKH6x7bysbq5G/O8L+rd5bDnGXGkccb+Jxv+vxOvPyP+xesxni5U+21f7oFRx8/gaDv/NWhZCS1u7cSNiuuLYUt38qEU2qr767jFeq5/V28CkrkiFRdX46O/d0MfIx2A/Lqc9B1QMTcadWkgIxLhRgItFXtLEfnG928igq4Qwza0kvtcPQ4UXVdGQNEAgGt+9qnh+G+f70TRx9vYAnfuluq+bkJeUK8YlOyF4ifsuKWGhz6z6PIKMhA+Q0lGGkZZTBwoUbXTiGqV7/9xpzDnQIIcw7RsmyQAgjvVIBwLhrf8oWEEINi4BXeQKKg0LTL/gLqgrMBgrJtYhZAog7AtCqiDAoSCdy0L31Pnh0CCSStHPYDEa8gJ0bJVUoeCLneAoEFCjsQUKC0yNkAIVEdMpGDcCHeQWIxqkSvx+xMhMQ0x8T0Rfo7kaA4m4egAA8FSCjVHK9R4+sLBQgqQG/RI+wLQUUFVyhtyiixwd766CY4uifx2r8eEjnWVASTJviSNOisOuz69A689p3X4ehzsSEhw5qY4kcrOJq0FWNSvLkQI6dHeQVK5ENa2RMQINda0cZCND95CqNnJ9hFx14J+l9cxGi1ZPQSDDftu/GRtZg450T5zlK8/m8HZclXMFGRDBKx9yd7ptjNR8cwpBkQdAcZMFRsL8XUkBtDp0dQvKEAnjEvxyATGxmn/pNDfKypQTfW3reSjVzzUzPxRJ1eh0iErjsOY5oekUCU3YtXgqjIqWuBGBdrmr0Kpuug+LrOomdvQtmWIkQicfQ3nE/43PSBdcivz+Ww0EATeddmGoWRNr5vLQZPjcBo06P1xXOo3FGGzX+4Hk9+4jkGbSqVqKR4IcIqfVZ/9wq0vXgO1A+BqgP/cRi3fv1GPPfFF/lZYa+GTjPt7aH7TV4Qv1O4drOrM/kZqL6+gnkRdB8i/jBsBTa+jxNdk5zFEEHkoq5u5YrKt5dwfwR8LtVSAGFZ7P+cB00BhHcqQOiIxrd8VRZKUgwzGS0lPq/wdpTQA7nkqSWGERTPQuIKWzHESnqjYkSVwk5kOGkVrngNErUEFLBBiyvle8poiJIkdBiIBUVmA8cH5A6YZ6AhtZAZgiLnE8sr/cRMC07HTPhRAIRSylr5dyLxMBHcXOjvxGtPrFCZ+PlsDhRds8z/uX3rwgECTcY3//UuPP2Z5/mWPPR/7+EJmdzwL3/rNQRcAXjGfLj+U9vZZfuLj/4GRRsLGEgQeHCPeHHvd+8QLqN4HM9/+SUEXIJotvGRNWh8glzIyiDMzBH3/svtOPXUGVjyLNzXsR+fnP7yzm/twVDzEIcEiHBHxKEN712LV7/9Om9Dhua9/3E3nvjzZ6AKq7gCXsGaPNz4+Z341Z8/zTnV9/3bnXj2s3unwQl5GB76j7vx6v95HVW7KzHWOobaG6vxm0//Fls+tF4uyHK+4SCgRHwHCo9M9bswJKcK0pgRWbLz9W6s2F2NjKp0tL/SAb1Nj5LNRehvHETvkf45J8Sl2IBIivT4PvS9u/DLjz9znueAQBSRVMmQW/MsCLqCWHlbLRelIu9Pemkaet7sE3FTrRr2Qhs8ox5e1XNTgcHD9j/dwgV6iDRKXiUy/Fs+uB4DTSO8PwEE8iQNNA0hqzITjb9ofus9VwGmNAPfm9mNxrNmVyXHfhPB1+ztKKTD/Z4cQs3uKhz8wREOYSVyEAhw0j27kAfFYDPgnu/chic+9tQlAVwKICzFk7nwY6QAwjsVIHRF41v+VvYgkAEj46Z4OBVDmRh/TyQYKsJCiSGIRKOqeBFmG0/FtU62SOEaKP1Ok/sIEESFZ0CRRJz2MogVKocr2OMhf8GgRrbCyraJ56aEGBK5FQpwoN+JHITZ70gCX2Ba5yDRi0DbK9euhEkSqzYqx1POSwFj5B2BCrdvU+Pr9y88xJCYAWBMNyLkCbIXQSEqkgEhZjv9m1jmp54R5EFl1Ujf00ovqzIDZ54/KxTZjFpmLtOKc+zcxHR1N9qPeAwEPM691o3am6qg1Wlx+reCbb/lQxvQ/EwrezToliiiJNQHGRJyhe/4+DXY/6+HOCOBiFXBoHCxk3FQOBG0UpwNTCiOTqt75bzJM6CQkJShpWNQn4lkSgIkFMM++evTDE7WPbgabS+1c/iCsiiiIPEZWglrmfxID9a9370TL3zt5WUXeOEshmgEpjQjfE5SBRVXsuLmKpz9XScbQgoRlF5ThNZ95/geZVZkwJxpxrnXOqfvS0Z5OqvdDZ0axpr7V+PJx55B1fUVGGwe5nEmDxGBiLu/fRue+cxeXvWTIY5H4gwQ6Hmh8c4oS8P4OcclORn5q3NRuCYfx35ygs+14rpSSDotOt7oOU+Expxp5DDDzZ/fid9+5WXetnB9PgwWHfobh5hYRl6hqDeKVXeJjA0iUpKHaqh5ZPrtq79jBU7vbWNQa8u1cBiKFAoPfP/IBa3YYgDCzk9s5xAK4pTuGoFGEoDqzN5W1N+5ksM5J37ZfMF+L5XmSGRD4se89q8HF25557nHfEmK8zzcgjd7OwEEElG69mNb8PI/7L/oddKcdfs3bsRI2xhKt5RwKDWt0M6eMJoXaYGqlrQIB8kTB/gcATj7nShamw+/K8jvaCREz5AG8WgUvccG0fLCWX4OaL6sv3slAk4/z0mZ5ekc5o1F4ghMBXD0x42ou7WWPbjE/5lPWz6SIgGEb9GqXLbDiqFWjGkiOEgksSsrczKqpIDIVkcODSgkRvpMidMrHgglNk+/ZwOEQAyIUmGmKEC1xclLQACBvAJK4aVEHkHiSl7pY5M+BwAAIABJREFUX0mhVDwViXwDBSwk8g6Uc1SEn5RtEkFN4rUpIIB+K1ldynUr4zMb7Cj7z/aw0GKPAAIJJW3XXDZAoBVcq0LwusjTxGxrNaUTigu4mA4CSZPSCpXiygVr8+AadLMLX0nFiwZJTS3OgIOOR03J0a+/awWvzGevNNOL7Vh15wp+GboO9kzHw4mDoAAE5bQt2cS29y+YOFiyuZCzHMi4VOwow/GfnYB/VsoRGcKya4r5JS/fWsIZItF4hFfdfQnue9oukTQ5nxf0crYhgLD1TzbxhGDLtfIkQWNNqXsDjUNsxJVWeV053CNu9nJQNkLrC+3TBFMi+HUf7mMjqmRhEH9gsHkEPscMQ5+zU+JA0bp8Tt9q+vUZlu8lQMgKfho1am6shC3PisP/fX7mQs2uCpasJQ8A3feqHWXMKxg+M4b3fHA9Dvzf8w32NX+8EQ0/O4maG6v4uPxcOP18jtSIzEggof7OOjT8/CQLZV3z4U14+e9fA/Ewbv3mzayRUfqeIvQc6efzoywd8nIQaOo7PoCc2mx0Hzpfz2AxAIE8NTqTjlMAE0MvdE8orEZjSc/mhdqlAAKBeJIhVsooX86zMtc+KYCgQZTsxjwaPb+U/eDsJ1b8xRtldgU8IVizTRyepLAdvXvmDBN7zOi+En+J5kZ6ruldMtgN/N4S14ffKSLR0neuAL/f9ByQsiSBYXrm6d2geTEaivCczFla414+Di12FFLxXJe1bAChs/lU/GsP/wGjZmWAyQDQD+dGRiPweLwi7Y1FXOIwGOglErHmYCzKcdRYOAKL3sB2PB6PIUppND4XXEE/CjMysH3FKuw/0Qh3OACjVsLtG9+DdLuN0/UIrR9tP4fDHWehUmkhSUQ+VEMnSZBUMT4eGdFAwI9gOASNGijJzMHG2mqUZGZBrVIjHIvB5/fDajFheHQMPf0jkPQGrKsow7Vr6lCxeg2kB+4DJDkkcbIdoNKnOh1QWgqQdnlEBiaku0Ar23QrkCGrMl7sDpE0NE16ZCsHxoEpFyBJYn+/HxNNx2C0WGBavw7Q6wR3wuVGrPEYQqEg9BYbVGlpQFEhGtRqTnNcSCOEuvreOpx4QpDXlEYSr5mVGZjsdYqVdiLH4yIAgVaWN31hJ176u9fOM050THqIb/7i9dj79VcuSuQjQ0XhgETSGqF1yu9vf7WTX4aRVpEZQW02QKCXac9XduH3/3zggsTJxOujVC0KTZBX5PSzrajeXYnRljFMDbouGNOfPaakO0DPsSHTwMc5+qPGhQz7orfNqshA0B2Gz+nlSYbysymdarLnwqli9XfXMWHQmmPh86X7rWSgrLy9lg1lenEaG3Basa68rQZH/1es8hMbpdtVbCvFeKcDzp4pWPPNKNpQyBkR9I53HezF6nvqkLcqD/u+MUMMtRVYoVap4Bxw8Qoq6AnC2TcFT4I2hTHdgIAzcJ5qJ03GlHp5w6e24/D/HH9Llo0SYiCCKU209Nxu+9gWDkkRcCvdXAR7sR1NCRr65MUiMDje4Zj2iCnXuBiAsJibmhJKSlVznJ1avJjnaaH7LhtA6CCA8NAHSPKDcz9jMjhgkEBGNxiAPxCAiuxgNA6NRg2jQcfbRWNRhGIxXgWq44BR0kGtInARQyQaxbDXiXAsip0r6jHqmEC3YwzhSAQ7V65BXVERI3X6mfB48NzhQ5gKhKDTURYCkepETqqO9L1ZmlzNExQBhGDQj6hKBatBh3UV1agpKILVpOcc40AozOfn9wVwtruPPRAbqyvwwb//G2BljRh3hxto6gAsJsBuA/JyhPuDaj1QXjwBBKoaWZIttBvm00gqeNgJeLxk+QC3GzGHA4ONR1G4ciVUJaVgZBOPAsPDiLa1IBgKwZSdDVisQFEBGuKxBQOEi50apSHW3lzNZLfnv/zyW5DofJQUiUhHBDVldUh/9x3rx0jrPFUVVcCtX9mFA98/ygJOs9tsgEChDuJKnHq2hbMgut/su+jIExOewhW//euXzwMs5IanZ3eik0Q13trICO3+q+tw6IfHEHZHoDaq2XV/MQb9fG795WxDBnyq142BU0LMZbGNMhxW3FKNI/8zIxo01zEvlsVAz4bOIvT2ExuN99HHj8NCq+kJ/3kgjkMY/7gHe7/6CnsW5tPW3r8Kgw0jGOse59RbAo/kJSCQovRNACORCKkcl7wsRNqcLbCVCBAaGhrx4EPvh81qxfHGY7CYrWhoOIzs7Fy4PW4GzZOTE8yDuVSbnR1zoW1TACEFEC4FEJRaG/w8a0W6Mv1NXj2FN0ShTvLwEVeIxJpoH1o8kEeTvlDEnGg/9tqyBgfV4ojDbDXB6/GxV4NsGdlu8mqoJTVitIjVqHgNm+j1Zc0UWfRrtqdiWiipo+lU/KsPvZ9PjMFBjPTBRFyf4qNur5c9C3zx0RiTisioR2MxXrWHImHOZTdLEgw6nYgoxOPwBP0YcDuQbbWiJqcAhzva+LhlWTnYVb8WeomEfuiQcRxuaUFTfz+gkaDR6BGPq6EiISC1GpIqDHWcQIKWAYJCPvAHQwjHwtCqVChIy8CmFXUoy8uB1+vln/S0NJj0BrR2dMIbCGPPrt246e+/Ao3ZBBylmLka0ElAQQHA4ILc/cTFCAHBAGAyANly0af5zHbkXRl1AeGIAAJOFwIdHZjqbEfuNdcANjugkgtOtbcjOtSPcDwOQ14hYDIBhXloiIYYIOh0eoTDIVmARRR7CQZoZTbLDTCf87rINvMBCLQrrTgpTW05WvW1FQhHI29xE9MLQjoJRCykkEhiBsRc55FZkc4vwvhFAALtz3wHTwiSVjpPPWyuYy/193MVa6IXWHHJL3XfdDyqMkjkzMSiPHl12RyauBKNDL9e0sPnFWEQmhBrdlcw3+JyWyJAOHToMN778Afw2u9/hy1btqKvrwednedQWVWDkuJSZGRm4ic/fpw9eXQvZguPKc//9Z/dhhe/+vtLnlLSAYJej5DM57ncsVvMfm8nDsJirvNi+5KtIqN8sbb6gTomSxOHqHhTAXs9Kc26aHMh9n3pFQYCK26r5iJfZdtL0PtmP4dBqKInpaeTPeZwBmUOyRlrbGyJjheLMV+GFCGpaqdY3JPHPwpJLyEcCE8XA6PzpJ3oeyrIRY3CqXu//ArcEzOCULMAwgfY4Iv0tBk2ps/nhT8U5FBDLBaFpNawW5gseyQWRTgaZe8CnbzdaGBjTalT9KINTTngCHiwrqgU50YG4QmHoddocM/GrbCbDWz8NSoVxp1T2NvYAE80CqPOyvSDuErDA0FAhACCKkYARcPjoaXPKZWOuJSxCMuk0rnptRLWVFeivrgMdN40AKW52UgzWdA9MIzu0RGUFpXiA1/8K2REdFDZLIDVAhTkCZ4EVZWka2HvQRQoyhCGfr6NToiqlhl0gNcLOFxwHT6MsNuJzM3vEaEMOmt6ic+cQtTnASQdNDn5VLEGKMhFQ9jPAKG6uhaZmZnQ6w0cNolFIxyK6e/vQ3ZOLk6emP8q8aIPtKwuueHhNTj7agfc81ALm+9QzHc7k8WEcDR0QdY6HWPro5s57ksEw0s1ig1SiIFeuoW0ZMdt5wIIN37uOhz7cSOcA2/1vizkOi+2LXkdbvziDfjNJ57l94VWM7U3V+H0s1dOMveCErEX0gyZ5wWnQgzzHKgl3uxdDxBU79AsBuFB+IAAAYoHgRe6EV6JR0A61aTdGoOROQaCe0ChAwIIZMAkrRZmSQsNgQNCOoij2zkOvU6CTdJj0O1k4LC1tBLVRUXQUDyCkEw0jjdbzuDM+Ai0agNzD2KUuEAulOlSDgHE4oI5SAtw+kaS1NDSedB25OmIROELByAhjlyrDRtX1CEcDCA/MwMWoxHpVjvGHC60dXfDbLXgofsexrpdu4DSIhFmoM6IEEaSqxRmoJKqefaFv0Ky2wcOLzDiwMgLe2HLsMO4om6GrTnlRqyrHZFQALrMbMCaBhgMQH42GkJeBgi0wsnOzubaCz66B5Eor3DoM5s9DT/76Y84A4BAw2IaATlboZWZ7stVBvWShn2OVQ8/B7KmwqWOQ4DRkmOCa2huSdTE4yR9UtNqWb//Yk24GmXv3WJu9EX25XdZXk0sw+HndUiD0YiAf4b4RyDlpq9dzyv2xLLQFzsYeS8TyWkpgDCvYV/yjZL+LmnmT1Jc8ouXOV1L6eFd6DkuHweh6VT8Kw++n8EBgQTyBtCFkmeAuAUxObxAxkhPhkwGB6FolGN3NMEZ9XroNWpRyiEWhzcSxKBnCukGM5xBH6LxGEosdmxfVQ+9Vuj6kxdieMKB/a0t8MdjsOhtCEXVclqjoPtzBiLxD0TMg8EBcRxUhBTiwmhyLjklT0SjzG+IRyOQNGoUZebAoFYjzWxBRWEBLGYzpjweDAwOwWgw4fY9t2HHY49BlW4T4YUAhRb8wnuQaQXkoiwLvVG8vSeMeFsnRl9+Eblr1gEZ6XJVyggwOID4yCCPqya/BDAaBGchJxsNYQ8DBLPZDL/fz9dG4QaayD0eNxdwohVXW9v5dQ4u6xyvwE6slkiFm2RN9NldLmWxoMu5nGTXcE92/5czZku9z+xngBxb1nwr3EOeywqpJQsgpJ7l5K6g3+3v0lI/f9MhhnMnm+NffuB9bLA5cyEaZe4BxQXZUxCNslfAaBBhAcV7EAyH4fF6eRVrkCRoQKRF8kLE4Aj4EIhGeHVC/2/RSri2sha56fbpOB95IA61tqBnyglJrYMKGkTjGmg0OpE2ooACIivKP/Qh9UPqQipSgFPH2XjqmBxJq+k4QpEQV0CkzWwmMzJNZljNZuRnZSLdauFjDQwOIxiJ4aZdN2HPRz8KY2kZECClxojQUSDvwTy5iRecMEMxRA8cha+1Fdb1GykuIlI26fgd7Yi6JqHSSlAT/0BvAHQEEDLREHQtGUnxQudFdRxqa1dAo9FygRoqYJOZmc3giipGDg4uv0DQunUb0d3diY0b34MjRw5h/YaN6Ovt4ayX3t5Lq+QthXGiQlj9/b1c+vfw4UNYsWIlX3d1TS32v3bhugRL0a9yjIyMTC7sk5dfAK/HwwWDSkvLEYmGcbatFWF6dpex2WxpyMnNgc1q51AcLQp8Ph/S0tMxNDiAiYl5ElAXcY4bNmzC4OAAVtStwpHDh1BTu4LjqMMjwxgZXhxp80oChPXrNzGvQXmWNm56DwYH+jkM29w8Ix62iKG65K5r125AV1cHNm3ewsXc1q5bj67ODuj0ev693K2+fi1GRoZQv3ot38fKymoMDQ1g7dr1ePnlfcvdPYdiKbONPK50/bm5eTweq9esQ9PJ5c9KKi4u4TBwYVExGo4dxvbt16GxsQH19Wvwu9+9tOzXT3NpT08X8vIK4HCMg86HFu20mOzu7lpU/9MA4WzjyfiX7n2EJ61onMIJwjNArjsCA2T0yaiSu5slEYicSKmPlHIYCsFAho7CBfLnwVgEjjCxguPT0gqrcwuwuriE7SSFGqj1jY3jYGc7h/6NkhEEOOj4arUENUkmk4WOU66pGvSfqJoWh4bOMRZkIUSOObCXQQ2tVhJEI+UcIxE2OkZJi3SLGWkGI7IzMqFVq2A1m9AzMIR4JIobNm3FB77zL1BRaWrKXEgzATbjogaX0iXDT7/CxBBNaYk4FoEDynA414ZowAeNPR3IyAIMRoC8IFnpaAgsL0Cg09i0aQtXszMaTThy5CBW1a/BQH8/TCYjTl6Bl4peYovFAppcnn/+WezafRPOtZ9lA32xMtaLuxnn7202W1FYWIiqqmp+ie+++36cOXMKJaVl+O1zTy9lVxc9Vl5ePuz2dPYUGU0m2Kw2OBwTaG9v5eqCy91qalbAbk+DyWTG+PgoKiqqcOzYYRiMJnR1Xj5BcL7nXV5RBa1GwwDht889hXvueRC9fd0M9A8eFIqbl9uuJEAoKi6BQW9gg/Tcs0/hlj23oae7i8f18OHlE0VSxiY9PQMZGRmoq6vHvn3PY8d11+Ncexs2bNiMp5761eUO4bz3MxiMqKioRHFxKX7/+1dw1133oaXlFOj5evLJJ+Z9nMvdkLyrq1bVg8bhjTf244477sKLL72Au++6Hz/72Y+ER3wZG+mobNy4mW3noUNv4IZdN8Hv9XEY+8V9z1+WB2whp1tTUwe3e4qpAASU1q7bAIPeyCH6/a/9biGHesu2MwDh+Mn4Z2+/nwEA+fLJTU8rCiW0QKEHQsQa2XtAqY3+UAguH6nOqWCj/Sj9MBSCOxSAOxpg9WA29iSIopGws6YOaRajXCJBzX0camtFt9cNSSVBggrheJRYBvwfHZeyFjRqPeJqARAo1EAAQR0LIRYPiyKN5GZQSjlDzZOOTkuZEMKbEI4IjQYKTZAnIdNuh8WgRzwSgd5Eqm0B/NXHP4GKBx4UBpyATkGaqAC5mOb2Iv7ky1DVVggiJHE4SGNhcBAY7EGUtBwKigGrFdBSgSk1kGG/IgAhKyub7ycZJHrB6b7TC3b2bCuP1XI3CpEQ+KysrMLIyAij3qGhQQYthP6XuxGI5PoA1TUYGhriSYTScin17Ur0T9dH4IzKEA8PD2JqagrZ2TkoL6/E0aNvzlvsZTHjZLfbkZGRxeCAXiEqK06gpanpxBXpn/oj8J6fX8CeKzIyo6Oj/M6SZ2Ex7UoCBAJ49M6UlJTys1xSUoLxceGBGV6kJ2Q+Y0CeAipXXlNTi+HhYX6X+vp6kZOTi/b25Sea0jxLP/Qu0zscCoX5+aHzOHfu7HwuYVHb0MKU5hPywNFz4/V62ANHi49Tp5bfg0P9W202FBeVYmCgF1lZueydLC0tQ2vrTM2XRV3kJXYmkE9eQPJg0fuTmZnFcxjN8Yu9/9MAoe34ifhf3nI3q8pRSgQhEZrAqZ3nPZA5CvRCuIIB+EIB9h6YufYBZTXE4Az44AgTsVF46Akk5BlMuK6qhgmLlJVA//WMjuBIbzfCUMOsNSAcCTGxUYAD8ggQIVEFg84IrUaHkKy+RryDeIwU/GIgJoNKruHNO3EYQsN8BUJ0StoSZTgQyS8SDfG5FmfnIDczA16PFxXFJfjsd74LkFAREQwtRiDTtOj7GT/XC1XjaaC+HpCIjBkDAkGgtQ2YHEOc+BpFpYKcqKVS1QQQbGjwTS1riGHRF5Y6QGoErvIRuJIA4SofitTppUbgskcgASA0xj95ExXsIa6ciT0BMRLzkTkFtNpU9AfI2PpCQTi9PtZAsOj0nNpIxMRgLAxvOAhXLDxdzJCOaVdrcUN1Deykn0Cehngcb7SewXDAD6NaC01cjTCpC043ARToP5POCJvJhHA4Cm8owp6DeCwKlSpKQQf2aiSu9UUYQgV1nASYNDNM/xhxK8IIR8IcDslPz0Se1Y4PPfQANn70Y0BYLnVN3AP94jID6DLi+49CRUNYUSrCFgQQvB6guZkFlJCWAeQWiNRHEXcB0qxo8DrmDRDy8ws53pdqqRFIjcDMCCwUIGym+P3Rw6khTI1AagQSRuCCAEFF+gMqNaJEMCRxIrXgHpDuNIGGcDQMt9+PqYCfBY7I4DNPIR5HKB5GiECFXI6BuQByvcVKiw0rCwphNhrQOzKCYyNDnDVh0kjMZ1CxuX+rW1+n1iLTkoZQJMgeizDXERBZDKShoPAZ2OMgXxwBBPYukEqjSg2NRoJOznQglwYRMGnbPKsNX/rkJ7H2wfcKV4dRD+SlLY6cqAzwvgNASQGQZhPgIBQBSAiqsxMI+oDCYsCeJQiRahkgpFvR4Bq/IEC4/1/vZC5GyBfCM597gQHZ7t03M1fEYrGye4/u1br1G7Hvhd+yyzotPQNZmVkiGyXgB5HjOjramUSTaqkReKeOwKUAAtV9qNsj1FRP/LoZ7b/rxM7rdsHr8yAjMxsBvw+5ObnoH+hHQWERnnn617jr7vtxvOEobrzxFpw4cRylZeU4c7qZQ1NXwo38Tr1Pqeu6ukfgPIDwqZvvZEOvGFylDoNeL3LtCSAQ9yAQCWLK60MgEmZthDjx+liwKIogKyaIf5MZp7yEGGcxCJubJelQm5mDs+PDcEYiMKi10FL9B9l7QCaeOAukbkdGnIy2yWCESTLAHwogSGEISsEkgCDLKCgyRnTeAjDIP/y9Eq6g7zQiJVIjq6UReSUWgc1swcN33oP7PvIotCsrAbN+8XfNHwAONQH1NYJbQNwDSqFsPgWMjQhvQVmVICfS91yESgXYLWhwjs7bg0BEP41aA41Wy7E3alarjWNwoXCIwRuFjShGR+NDWQsUPqL0yVRLjcA7dQQW6kEggE1hU5vNxuxvUWE0BKvVgqkpFwxGA4cjLVYLgoEg8zWczkmeF1Pv0jv1KUpd1/kchJvvkHWdRRUzIfiggtFokIs2xVm10BPwweULyKqLtB1YrCgSj8EfC3FKIxEU9SoVNmTmodfjxEjAz59RU5z39DtNZ+LVNfEcIjJB0aw3waTXs0QkcRr0JN0cAzwBD4LRsEhsIBBA3AMmLQpQweqNdHyuWEhiTcLm8vfsXaAsCDUkDRWC0kLLmRQxJjmSd2FDXT0e+//+GRn1Kxb9ZMTbuqCiCo3lBSJXk7wHXj9w6CjgmRKSy0UloqCTotRIIMFmRsPE8LwBwqJPNHWA1Ai8A0dgoQDhHTgEqUtKjcCiRyAhi+FE/NO33CX0CYhsSGJDrFYoiH4cQojG2Esw6XYiEI7y6pwMK32n02j5u2G/C0Gq4ggV1mbkINdsZrAx6JpCr9cFF8kly94Em0YHk1Y3XfeBAAJ5JCxGM4ySWMVzRQjyBABw+dwIRoJif0UTQR4CggacZqkABAYEoggU50Pw9iKEwZwFlZrJlaRnrYVa1E9SqVCcl4+/+Pa3UL3zOpZ5vuxG3oMVZWzwucojAYS+IeBEkxBiKiwBMjKFWiOrQMn1qK0mNIwOpADCZQ98asfUCAApgJB6ClIjsPgROA8gfGbP3dMCRkp6I+Vns7oiVWaMRBEMBTHh8/BnRq0GZp2eCY16SWJOwljQCzLhOXoT1uQUcMqkkG+OIRiKoHl8GA6q50DhBr2FvQCsqyCggMwNUMNuNE/rGZAxp+wDp2dKyEDTdcvKigQKyODTKl0JjTD/QE57VP4WBEsCGpQqSfUdSKaZuIE6BjckE03uQtqOhJXufeRh3PKFT0JL6oYLbeQxoDLSqysBSrWkzAgKL7x5HKC0J/p37QrAYBLeA3Z1yEDBbEDTxBAeePDhhfaa2j41AqkRkEfgm9/4KgoLC/Dv//4DHGtI8W1SD0ZqBC5nBB64/z783d99E6r2xpPxv7rt3mlRB8pjJYNJsTj6mzgCBBqcHg/84RDzC2xGPa/CfYEA1BoNRjxO+FjZELgmvxQGScf7xSktkdUYI2gaHmSAYNNoYZRIslkWXWL9ARV7EKi6lE4lQScJ8SUy7RQ390b80yRGsvfsD5DDC7wdp0UKb4Ei48xehIQwAwME2atAdRxUKi20ag0MOiIxCu0ETVyEVdatW4M/+6/vQUM6BQtpUx7AHxFkR6URJ+HFA4B3CrBnACScpKHwAtewFlvRRZmNcJu1OHly+fN3F3JJqW1TI5AagdQIpEbg3TUCq1evBumlMED4/K338tWT/DE1iv2TxSX5U+IIUEnncbcHVH9Bp9Eg3WTmlbzb74E3HMBUOMQ8g2p7Jqqyc5i8GItE+HjkfRhyTqLd6+JwQa4lSxyXlA7jUSY/ihCB4D9wtUao2fPAJaWZeyAbUi77LMABNQEUBDCgQlHC1orvFNKjyGYQeRIKmODsBgpJqDUMEiQCJpSyqdGzR0Gvl1CQn4P3fvIxrLrj1vlnNnQMACV5InygtOFx4NAxgIBCWQUrJnJYQQ6L8AUQUDDp4TZoUgDh3fUepq42NQKpEUiNwFU3AucDhNvu5RU8sQTIiBJAoLRGMtjkRfD4fZj0+9h7YNYZYNcb2YBPeN2YCHrgl9MbrRotqu0ZKEhLZ2XECacTvlAIAz4PXPEY0rR6ZNmzRV/RKELhICKRMIcXyBPBJaVpJa+migtUVyEiAIIiniRzGJhbIHsY2GegogW58Dgo9SJm+AcCIJDHgkISCkggE07gQKnzIGl1XJteS4JRksRkRrvFgp233Yxb//Lj0Nlsl76JlBnRPwYU584ACoqJNLYA3T2Cj7ByBWAyCkAwnZcpZzEYdWjo7khxEK66VyV1Qm+nEUhxEN5Odyt1rlfrCExzENiDcNu9TEQkPgCBA1FmVwAEkkUed01x8SWK9VOFRoNWy4JJYz43nNEggnJ6IxndHEmHuvQs3s9qMWPU7cbpyXHWSSyy50AiaWFZI5u0Fggk+IP+aVAgshKEvkIgFOBzEh4BWnQLsqHimVc8BuIz2XMghxmUcMN0JgOnPio1HQRXgUCFRvYwUAqkllIvJT307E0gr4IWFpMRdatW4Z7P/AWy61devIZTkICMCtCL6pLcgiFg/3HA7QRs6UBlqRBGmr4A2XtA526Q0NDRngIIV+sbkzqvt8UIpADC2+I2pU7yKh+B86o5fvGO+5lwSIQ/vUHHIknCexCDLxyEw+NmDQJacWcZrVxyedznxljAiwDioNJMnGYIIFsrYX1+EexWK8LhEI70dGEoFIRNa0BeWp4gFSYoJ3JfJMIUiSAmCzTR2HH55nCQMwwoZDEdOJD/5rCEwA7THgblbwUcMIlR9j4oHgRFK4E+Jy4CpTxyiIJCDRTeUEscZjDo9JB0xE3QQtLrkG2z4Z6PfQTrH7p3JjyQeJM9PsAyS6Z5dBxoaAF8PqC6QpR9Zu6BRqRACtQjfuskNLS3pQBCEl+cgu0P4q7VGXjphX0IRsnjFIGW9D7MmQgE/dizYxN++MIxfP2RnTiny8WxZ5/E0LAHpdV5cI8MIaA2QesbQ/+YM4lX8e7uOgUQrvz9/9NPfB7Dnc042dqOiVEHjHotrBkZiEdJuVaLQDAASaeH16+H3hBAxJiFQrUTw86N9Q7KAAAgAElEQVQ4/ugj74PfOYK9z+2DNxBBMBqDSROHK66HMTSB8TEvMqpqEXFPwqxT41zX8ld8vfIjePX1OAMQTjTFv3LfI9P1F0RhRgUgRDHmcSEYCfOKnsILGUYLl6btc0/CGQ4wOCAxJCUxkNbPdbY0rC4uxeikAwcG+0hxAAWWLC4OpIopGouUy6hUYxS/iZtAfIdYLMIpkKFoiHkIAgnMEPoIVNC/LyS1PA0SZI6ChuoeED+BKkMm8BcIFBBAUDwJBDhEhoPE3gP6jmSmqUokhRz0Wi3MJiOuvW4H9nztC9AYErIcKMPC64dqNkA43Q50DQDE7VhbJ7IXBHNSvqYEgCBp0dDWmgIISXxXMivqcMft9wGDJ9DisWJtuQmGiQl8t3EKX7h/E3q6OvHTV5vwqVs3onD1ZjS98DgmIwUI5GShIB5A5qprcPqFx/HS4VNJvIp3d9cpgHDl7/+em25CLK0Ia2vK0PTqPuz3ZSDHrsf7VlnwRksfNAXrcFuVCT/6yW8RrlyJqGsM960rxA9/9Tt86rMfxws/+U+kS0GUbr4XzW3tWFGUhsYJFQq8Z9B7zoP6D38II02nUaYP4Qc/X/4qkVd+BK++Hs8LMfz1XQ9yaqGSlkgrenbxh8OYdLsRYmXDONJMZlj0Jkz53ehzOxGMR2HTGVjaeCDkZ6BAAMGuUuGW2lU43NWBvqAf6Rq98B4w+pCTG8mTMFOxWYyQKsZAg/gHVDeBvAikeEhcBFZ3lLkOVJBp2tdPoQMGASIsMRsgULhE8BEozXFWKEL+t8TAQCO8CexJoEqSGgEYtFro9DouRUt1J2xGM77x4+9DW101c1cJxMg6EtMfhsPAgROA2yPEkUipkcmJfKEzoEfRXNBq0NByJgUQrr53JXVGb6MRSAGEt9HNSp3qVTsC53kQvnTH/SynTGmGZE4ps4AyDLwBPxMUKdRAdi3DakdMpcLIlAMTIS/LKt9WWw+Hy4VXhnqnay+8Jy8fOWYrXuxsRyQeR5ElBxaDOcGAC7VGBSCQEWezyamKos4CexRIpClMNRgoI4IyGsR5kXdB2UfecFoJUgEKiVkMdBzOXCAvwXR5aMFJoH+LUIMGBBQIIAjyItVxoB+tSL/U6SBpJJQV5uFzzz8JFZeUFk3IVCusQ/nDMQfQ2AaEg0BNGZCVKdddUHbi2IfMR2CWJRpOn04BhKv2lUmd2NthBFIA4e1wl1LneLWPwDRA6DjZHP/K3e9lBUWy2CajkQ0kZRc4piaZnEj6/uxy1+nh9vvgCHi5NkK+PQ3bqlZg3+mT6A74+JqJpHjH6nU40NaCc143LBoJhfY8WdRIoQ2QSqJctVG2qyJlkcCBICKquCgT6RuIOhAUeghF6SeCSIT0GBSjPMswyyRHDu8z6pBTIhWFRbmQ03TlRyXUwCELyqDQciaFAhAYRFDIgUiMWgl/+P77sPPLX5r7/rZ0Ar1DYrsNdYDRKJ9LQnhB8TrQbwIITc0pgDD3yKa2SI3ARUcgBRBSD0dqBBY/AtMAoed0S/xbD/8R/D4/py5SvN2oNzAoGJkYhT8c5JV2IBREkLQLYjF4wkEm4+9etQaRcARPtTTDSxoGUOG64lKU5+Tgp43HeNVv0miRaUqDUavnEszKilupwCjc/7KmAcslU7hA9tgr8kgEEkAehAgCoRAisTCnP5LXQ1ZkfotWwXnhhAR9hGnBJKU0tJzuyP2qVZBUQlmRNRKYtCgAAgGGDJsV//jr/4W+MiG8cKF7QRUcKQ495QLSrcDq6gTvgUi55KbwEeSCTQ0nTqQAwuKf7dQR3sUjkAII7+Kbn7r0JRuBaYAw2Ho2/h8feQxO1xSCFDeXFQlJm8Dl8bDMsUbSIBAMcWojVXIMxiKozcnDpuoanOnuxGsDvcw/yDWYcM/ajWhuP4vDjhG2g7SKp8CFRWvgMAPVWpgpoqQUUxICSGS8KbyQGAZQrph4CQQSItE4yy+HqbojhUIiJLYUA3MfE6gJwgshqjoS/4CIjSK7QZAbhXNB/C1RSEEWUuLwAnsSqLiT+FvhOFyzeQM+/osfJfRykfsxNgmc6gRCQaC6BCjImhF7EoEVEmwQg8PoSJAoGxpTAGHJnvDUgd6VI5ACCO/K25666CUegWmAMNJ+Lv7fH/9LOFxT8HtDCIWCCFHJ4GiIUx+dXg+v2smzQLkDUz4P27ddq9ZgYsqJI71dcMhiRnXpmdhcXI5XTp/ECK3wZ500+Q+sGgOspKUgGaZrIFDaJBVOmgEOM7LJBDIoxs/URvodpxLSMSBOAksiPZJ+E6ChVEwCI4mNyz7LwEBEG5QKkEKRkQAJkROF10DOatBI0yqL9Dl7FtQa/MUXP4kNH/7w3Lfi9DmAFBQ1WmB9LaskyjmNcnpjgv4Bu0sEZ7HheGPKgzD36Ka2SI3ARUcgBRBSD0dqBBY/AtMAYaitPf6Djz2GSfcU3J4AfD4/6w8QByEYjbIOgj8YZGNKjP5AOMRpj6S6OBqLiFW6nL1gUKmQoZVg0OmggQaToQAmIyGEFUJigl6CSaNDusku9AbkOghkzHl1T6GDBE8CeQhYvpkzIARgiKmiop5DXIg5kUeBgAKpMSrlqhlwJKgqCd4BlYOW+Q0yQKDwAnkOiJRIXAvK3VVkmBkgULXHrGz87XM/hyYv/9Kjr4QXvB4gKw2op+wFAgGkfUDhhela1AmCSeKQDQ1XDiAQ4KMwUrJasvun66bwEWXuJKvRs8WZOklqszN/knEaS30OVwtAWOrrWsi9SWbfdJ7JfLeT2TcvP2dl0y3kvi1226XsexogDLSejX/vw3/OHgS3xwufXwCEMKUXhsPwhoUWATH8DXoJ4x4XInGgKD0bxx3DfE0VRgvq84vgDfnRMtjHoQIy5WEy3pQuKVdslJ3rCaBCBaPWgDSTBWaDQcT/5ZoKYtU/4zWYDRBEIF9kQ3A1SBJbomJScv0IoZ+Q4NmXR3+m7LPwJCiZDUrmAtVl0KjJg6BmYiKDCrUKd919K977L9+e+x6OjgFnugECCrWlQEH2DBBQ4iBsnd5KrrySAMFoNMLv9899Pcu0RbL7p8siwMvk3CQ1yowJkUBZklqyAZKS+ZOYnrzYobhaAEIyxzaZfdP9M5lM8JE4XBJaMvvmaT2Ji46l7HsaIPSfaY3/8x98lEMHHr8fgUAA0WiEMwb8FG6g1MJoFBa9XtRX8HkQoJLPkg7DoQDrHtjUGhg1Wug0asQiUTgiYaRJOv4sEouxJ4EMPoUIwiy6PKO8yN4HlRomrQHpZhvMeoNcvvl8XQOWS5JDDDPPnfAWcBiC4QKlQFLpaBFyILloBgoyKVDhIAhewozcsiKaRGEEjVaWXNZo5SJSFCHQ4Evf/T8ov3XP3I9801lg3MnKiFhfI2ovcGyDXCCyeuLslEj5qCmAcOnhvfMf9mDvl19CJLQ0q+4UQEiuB+VqBwhqrRrbProZAVcQx3/ehFhk/t6mpZys5550zt8imX2nAELy3qmlvO/TAKH3dEv8Hx/5ENw+n8hUCNEqPAp/KMChBL3eAF/AD6tej1G3E1OREAOExHWXQkakSHu2pEc3ZT4AsKjUsGskJjUSPyDEcs1qSCo1gsQZoOJQcohCEBTVMEsGWI1mGHUGJisq2kcKCBAySqKpZA+C8nqw2ZDj+URKpHRIAggEcITugqy3oAAEAicyEZG1EDjMQDoIWvYesJyzCqgvL8Lnnvwl1Gn2S7+rBEbebAYCQSA/C6gtEdkLF6/gcN7xFgIQaPJayIQ1+8STvYK/nP61Bi0igaVb8acAQvImM35VE/ROFmoEL7b9UnsQclfmoHJ7KXLqstHfMAD/VBBanQYdb3TDM+q96Gkv5WS90LFJZt8pgJC8d2op7/tMmuOpM/G/e+gP4fZ64Q/4OTOAxIF8AR/coQCv6MlKU8pf7+QYJqmE84xQcIKxBgggFOgMGAsH4ZItuwTAoNbAptbCrNUwGdFuMLHI0rjPw3LN5FkQ5ELhXaCUQoOkh81ghk6rY20C0UixUITyeYIRDMZEIWZEII5FOgqkvRiNUdaD8IJQ+IE+VTQQlFoMrKJIokiKzDKBBgYOBFuAj/7ZH+Paz3x6zvc0NjwCdfsAFZIAVlUB2elz7pO4wUIAgindCN/k5YcILsdAL+hi5tg42f3T6aUAQvIms7cLQJBXIrDmWLD6njpodVqEfGGUbi5C77F+uEe9GGoehsFmwEDT0LS3cikn64W+d8nsOwUQkvdOLeV9nwYI3c2n49+4//3w+X0IBgMMEIjo4fJ54Q4GQLLGFhZPUsMZ8KIv4IVPju+LigiCpMgeA6iQbzRjIhTAWDQCA6kvkkSxWs3qh/FoDBYiMao0TGQkgmIkFseAdwouUhyME2xQYvOiaqNeK8Gilz0KVGXyIu55ejA1rL8kV3/kwwjfBmc+EDiIE2CIMCDhsIJc0ZEAAqc0aiTOVtBqlVRHFawGI77xxOPIWLVybu8BlXb2BgCjHlhbDegS6jXM4y1fCEDQW3UIui8/fp1sA53s/q8WgBCJRdj4TA265vGELO0mSzmhXM6ZLbcHobHxJBNxN27aAsfEOLSShDR7GhoajqC6uhYer4c9huNjY1i7dj0mJsYxPDyEyUnHebLtF7o2c5YJlTvKULKpEKZMM881Ha/3YLR1FMNnxuTlThymdBMC7iDXmQn7RY2Z5W7Jvq/J5AEks2+6r8kc+6XsexZAeITDCKFgSLCq1SpM+byseUD/ZmZoJIKdK1fjeF8HTk6MyTUTZsCBESrYdRLS9CaccTvZQ0DOdfoh8EBggswZeRTSVFrkaPWw6HQw6nQw6Y1cxatragLusJ/lmYWeIq336W819JIEs8EEnSRxQSWlJegSTgMEFZeFnmkquXgDhSyII0FAQfAZBBwhcKDTSiyzTBMGcxFYSjmO27dvxkP/80ORsnip5g8CJ1pFieeSXKCieN6hBeWwCwEIOpPEK5nLbck20Mnu/2oBCIYMPXZ+ajue+8K+K2I8Ep+XuSYUtUYFay6BF/flPmaX3G+5AcKpUy2ctk0KqHv23I7Wthb4fT50dXXgllvuwPj4KBOQSeukuLgEzslJzoo68MZrzMV6i3z6Ja6GQn6r7qhFweo85NRkIxyMgMaPFy5aClWqcPLJ02jZexZR5tDIheq0GkTDQj5+qdpc93Wp+rnYcZJppJPZ99sdICSShacBQlfTqfhX7n6ABYdIqZB+k6xxIBJBiDIDKIYfCWMqFAAZXneUUhvjMKo1CMeiolKxRgOzRmJ3v6TWojfoBZkuAgYmWZTIw+59ZU0vgEKhZEC+wcwG2qDVwaDXIxiLoX9yHCMBL4cIhMaiAAoEGcijYDKaoWfPxPlGmzwI08BB9jQIYuKMKJLQJqJ6E3KVSKrrQOJJsnoicxDkv4nj8Hf/8z3k79g59zvVOwz0DIo0RiInWq1z7zNrCwUgbNt2LYaGhrB167V44omfcsrpgw8+Aq/Phxf2PsuhEo1OI080C+6Gd0i2gU52/1cLQKAshqVMT1rI0zCXIdFZdSjdVIj2V7sWcth5b7vcAKGh4QRnqVx33Q1obT2NtLR09hw0NjZwCJHAgl6vE6muKhVGR4axa/fNeOXlfbzfQgCCctEGux6xaByxsPBYEmmaQIhWr8HWRzejeEMhQl7h+eMaMRoVgp4Q+o8PQqPTouP1Lkz2Ti2Ka5Os50kZg2QaaaPJxPc1WS2ZYz/X+zzXmFwQIJw8ciR++zVbEY3HOJsgW6uHVWdgsOCNhjEVDiIQjyFDZ2DjPOxzw6LWYEdpJSqKi3G2qxOjTie6vC7mJ5AWQqHJBpNOB6ffC0cogJAMDoIJIQky7fRjUmtQZLDArhV6CDoDeRWMCEai6Jsax5CXVi+COyDeKuHGISBiJqCg08sqjCoOh3ChR1lGWQAD4U0Q5Q6EdLLyfWLBKNqIuA+kmshaCCoV8rPS8M0Xn4XWPgeXIBIFKHvB4wVsVqF9oJ3D43CBu6UAhFWrVnOqUDAYQn9/DyorqlFRWYUDB1/H4EC/uH6dtKhVh8FoRCCJaY7J7v9qAAiSTodwKITM6gwUbyrEiZ81z/UOz+v72lsr4R7xYvC4SEO+WFvshDKvk5ljo8VOqBRCSNSSWGqS4uVe48XGlrhDkkmC3qJjsiOtJ4h8W7yhAP0nhlB9fTmyqzPx6ncOwjPqgXdi4cYu2fc1mQAhmX3Ts5LMsV/Kvqc9CH1nWuLfeOhhnBsdwYTHwy42fyjE6NaolWDV6dndtnvVOhzqbEOn24lqqx03rV6P4qxMvHjoAAKRKDq8LoySO2+6kLGKsxQo9KBTq2HW6pjcaDNb4AuGMOmndEnaQgCFdCrqZDAzsKC6DZTFQBPo/p6zCMUikFiPQEgS8z4kbkQrfeYz6BkokGCyop8g5JpFOqMimMRyyvJxFKAwu8Ij32QKa6jVePTD78O2z33+rWIKs2eNKTdwpktUbqwqE9oHl9EUgJCTk8tjnpubh46OduTnF0Kv13PqZl9vz5zx0fl0newVfLL7vxoAwrQOAqttqxEj7YwlaKYMI2e4UHre1QwQltuDcPDgm0swmpd3iMVM1tk1Wdj4yBqkF9sx2eNkDsOp59ow0emY16JgMX1f3tWev1cyjXQy+35HAoSBlpb4Dz78UUTjQChMxZiicLs9LLHMTa3GlNuNFYVF+HVLMxvzXeXV2LpiJUbGRvDGmSZYTBZkZWRjf0cr3JEwhxfIPGfqDZz2SEaZjPyqskqYDEY0dHWi0zEqBxAEN4GmRqL05WoNyDOaOa2S9mueHIUnGmGgQR4GbjJ3gF4EMvBEACL+AHkeCCywp0DxIsjFn0TxJrn4kuxFYGllue6CAiT48PEojHoJ/7LvKUj5RXO/Mx0DwPCoABJUudGwMHKi0sFCOAhzn9Slt0i2gU52/1cVQFjszbzM/ZNtSFIA4eI3jrwLKo0KFTvKoDfrUHV9BYO+7kO9mOhysBYIpfzW3lQF4j8QAXKqfwp+V5Dn3t6GAfZQzAUSL/PRueRuyTTSyez7HQkQuk82xf//R/8Ekl4Hjy8oyiqHI/AHQwgEg/D6fcjKzEDr8ADOuaZQbrZiT/1aVOTlYN/Bg+h3OWExGHHd2g2sO3Cksx1NY2OIRGMoJkOv0yMzPQNGkxGOyUk0DA9wyEKUSxIhAZ1KBbNGi6mIqN9ggAoFOiPyzRaYJA0cwSAcAT+8kRCnNjL3QNE7oIOoRHqkVkUEQzVXo9RJlB4paipMexFk7wF5HyguqFRs1BBRSa7FQJNmJBjEmtV1+NNf/JiBxyUbkRJPdQA+P5BpB+oq5vY4XOSAKYCwHNPVJSbhq0RJkZ7P3Z/bgYPfP7qo1NWFjl4KICx0xOa//XKMrTXbjFV31yG7MhNaoxYhT4gBwGDTMIcpcldkMY+BgIFGp4Y1xwrXkBsBd4DBxHiHA+de62LuEpGcySNL+xntei7I55sMwDfpY0l7OvblEicTjbQt1wJDmgEZpWm8bGx9qX2mmu38h3PeW6YAwtJ4IWeKNbW2xf/r0Ufh8nqRbkuHw+OFx+NjHQRKDQxHwjCbzXixow2qWAzbSitww8qV8Pr8eL3xOBwBH0qyc1GUlY2a0mKO+Q86HGjq7EJcrYLJbINz0gHH1CTMOj1OuSfh4ywF8ZxIUCFLK6E8KxctEyNwhEPTqZM6AMUGE0qsaZy94A0HMUzFo4IhfriVOgmMFahaI9MZRciCshIMBqOsoyASMUXZZlHvgUMLnNIoOAd0LK7aCBWioSA+962vo+TOO+d+MMcdAHkQiIewphywziGmdIkjvhMAAo3hfFzlKQ8CkCi1TJN0yB9ZFPF07of1/C2Ww4gt5ByW24Nw/LggKW7dtgM93Z0wmy2w29Nw9OibsFptnAKZlZWFkZERbNmyFYODAxgY6FsSmeBkji2HTzVCIr5yRykmuiaRVZWBzLJ0lG8vQyRIoV0uZAO1VoOQX154GbSIR2LQWfQYPTuGQz88xmJQRLxUdFdyV2SjZHMROvZ3QTLpUHZNCQ7/dwNyajKZfFl3ay0kvZY1Iko2FyKjPANehx8RXwhDzSNo/GXztPjdQp6V+WxLIEcv6Zfk/s2nvwttk+z7vlS1ZaYBQnx4NB751VMYCUbw5e/+E1pGRnDdmg2Q1ED38CBVSELHxDjO+TzsEbi9fi1qigpw8PhxJieGEEd9eSXsFjPsJhMKMjOBWBSBcBTjHjca2s5icHwMGklCZXExTnb34Kx7kj0FtDYvMduRrdejMD8frmAIp3q7MRryTwswsbEHUGq0oiQtHRqtBhNeDyZ9AsBQf3dffz2ONTfhTF8vu+G4qHMcImVR0vFErOMy0+Q5oPCD+I5+KAODdA8YMGg0nDGQlZGOr+57GpBIyeFSLY54WzdUDhdg0Antg1mZFQt50N4JAOGuf9iDfd/8HTOzL9VSAOF8gEBj9cD37sJTn35+UQz2hTxvyZzM2PG3zEqKM2mOWuzZcwdaW1vg9XnQ29ONjzz6p2g6eUIIw6k1KC0rh9s1xdlNv3/1ZeYALaYlc2wv1TeBhunGjG6xUlOyxJT88IrryrD1QxvhGvMivcDGIQ3KxBg5M4qO17ux5v5VcPY6eT7Nq8+Fo9PBnoKWfe0839bdXo03/v1NDJ0evSKg115ow93/cCuaf3MGo50T0Ju0KHlPMTrf6Ebv0YHF3MoF7Xu13vcFXQSAGYAwMhrH03sRrazCzQ/eiVMOB+rtmVhfWo6O0SHmIpzzuFhcaHthKa6vX4NYNITXjx1FMBxBRkYGNq1chSm3i0mJdqMJuWlpsBr0CDFQCMHh9WPEMYGczCx0Do/gyRPHEZQzHlZn5cFiMHC6kUEywhOL4qW2ZtZR4ElE/qG0SKNajSKTFSWZ2Vym2eGewi3XbMejn/okKyZ2nTiB37zwHE60nmXipEBTwq9AN06vM0Gro7CDyH0msEEAQaLMBco6UKng9wdw7/17cOPX/mbuMaWwQluX0D4ozAWK8xasfZDYyTsBIBhsegRJGGaOtO4UQHgrQDCmGeCfCiyrCzbxeUvmZHYlAMLx4ycZ8G+5ZjsG+vs4tbeiogqNjceEx5BW2go5VAWMDA9h2/YdeH3/a1yP5nLSHJXxpeMSNyoZbbGZIco5G9MNSC+xY+TMGKduErhg72ACsKAJmj6ncAT3G4tzBhap8l5uiOJyxmzVXSvQe6QfBqMB1XvK4Rv3YbR9HOseXA1zhlmklsbiOPrjExySyVmRxbwOwqiF6woYmFNYxZxt4ufCaDegelcFWl9sx0Tn5LxPKZnv1GL6nl3n6HyA8OSzrJq46bOfhDscxrb8YqSZzXjhXBsz+glL50h63L5qDVaVlqCprQVdA4OIqoBVldWoKi7BmHMCkVCYV+EGkxE2vR5pZiPMeh10Gh2nSHY7RjEyOYXfHGtAt8sJvUqNDTn5sFks7PqPuvzonJrEmaBr+hlUAALrF7A3QcWSzUW2dBTYrfj0nz2Gumt3ChVGAgWaOCZCPnQ0n8QLTzyJrv4hRCgvmZQcZa+CTiexZ4EEVKh6I8ksM0CI0XYxfOVH34d1Zf3cD0X/CDBE5EQ1UF912eREpaN3AkCYe9DEFimA8FaAMN+xW6rtFjKh6Cw67P7sDuz96itL1f2yexDerlkMix3ghdzXxfZ1of2TyQOY3TdzzXQa5kCQ0V9z3yr20FEIZrx9gjk/BGSI7Kkz6xgM6G066AwS2l7pQNXOMkhGibkc0XAMfccHMdg0dNE6HMkc+6XsOwEgjMXxm2fRPdCH6//260jXSliZmcOZBa8OUelmARi3ZOXhxrVrYNBo8drxBngDAdjtVmyrXwNSA4mpZEnjENVrjEEnqbmUc0l2FkySDk09XRjzuGHQm2AyGtHY1YUTPV3I0EgotmcgFokgEonCGQigNeBGIBZlcEL0Q6qvwKWZmV+gEmqMeiMe2LYdj33+i9BT3J+QLaVBZqYB1aJIUnRsCGeefx7H9r2Cto5uuNw++IJEwlGxMiO5wkicSaIKjlotlz9ev2E1PvCf3xdG/1KNFFBauoT2gd0G1JYt+l1LAYRFD+EFD0AvOKnVzS5ulViLgdyn0ZBQ2LxSbTnKPRNBzVZog6Nr7lXPQieUpS6WtdwhhhRAuFJP8vn9XE0AYfYImDNN7BUhXobfORNGovefgETIK9Rp2VtC4Wq1CuTZq76hgkHC+ofXsKeB9hWe0jic/S44+6YwcHLonaeDEB8Zi+PJZ3D0VCPu+/fvoUxvRlF6OgbcUzjtcfGqPU2twZ6aldhUXYWz3V0429uHcDyGysIirK2pgmPKyZWMaVVuMRrY4LKEWDSKuqJivNjYgFGXG5l2O3RqLTLsNpRkZmFschKnOrsw5XDBGwojGKZKaTpMhPzo9bpFaEBF6o0iu0GABBX0ahU2llfgb/7kYyi9dpd4Bkgi2mwEinOBrKzzn4t4FK6zLWj4yRM4euAIBh0TcvEmKkKlhdGgYzlpAgh/8tefRfW9D8z9ZjmdQNeQICdWFgEZxNJdXFMAAikoHj9+lOOmL764F+npGbjhhhvh9XnxzNO/lkMnQmCF0DAxkskIXkhUhVBxyBd6i9vaYjPD6/ZBLakvGCNMlHKmsIFKo4Z/VnEo6jPsD3OaFdfakOVisyoz4Oh2XpKsSB4E6IXb0ucQRaeoH61eFMNR1OZmjyi9yESymt3oXCLBCL/ksys+3vT5nTj7aie7Ful8lZYIEK75440sgzs1tDyywhd6Mi4FEMjQL7SsNcki7/6r69DxWhean2l5S5dE4iKgJBm0CAci857MaLWl0ah5BSUZtcygr9pZgaYnT7+lD3oWqNH5K88F7R+LCNVAdkVrhJ4JpebR80k1WrgIG6UvJ8TIGdARoVnSiG24CitP34gGI2ISp2JsCRU+r3ahpMXNEPPbe6HAb35Hnf9WVzNAmP9VXPKF2VAAACAASURBVHhLDc2XkRgMVj0K1uZxHRVjmpEzQShDhJQy00vT4B7xMIAIyfNN5+vdgqy5hNVoZ5/hUt73WSGGZ/DL3+3FZ375a1QZrci0WXFmfAxD0TBnBKywpeO2deuRabXgjYZjmPL5YTAYsL52BdKsJkQiMYQiIfYA0PY2qxkWoxkZFgvcHjeeOXIE2ZmZSDdbUJCexszi6oJ8GNRa5iJMTLnQ2NaBgfExSEYDtDo9mnq6uZCTUavBkN8LbyzCNRkojdGq0+Jv3/8HuPn9H4DKZBPeA2oZdqCmXHgSLtLiE6M4/fOf4s39hzA0OIFQOMQCRDS4+blZ+LPHfwh1+iyAcaFjdfYBky5ArwPqyueu1TCPJ1MBCPX1a5GZlYVAwI/WljOorKxCdVUt9r/+KkZGhqcJlrv/egcaftSEzMoM2POtCPoCCEyGEAlHULmzDKNnx1GzuxKv/dNBNjY6s8QqbjRhV++ugGvQBWuuFV0HelGwJoeNBqHhih2lsOaY4ehxonN/D3LrcnhyJxayd9QHySyBitXU3VaNE0+cRuXOUkbQI6fH4XcFsP6RekyccyC9Ih3uYQ+cvS6EfWFYsk2IhKMYOzOBNe9dyQaERH2O/OA4cuqzUX9nLQMLBVyQMbfmWzHaMo5oMArvuA+r71sBz5gHY2cnYUzTQ2/T87nkrcrBcPMIsqoz8ca/HEbJtUWsJFhyTSG8o36uwVF6TTHe/H4DrPlmBldTPR5k1aUjvVTEWR0dTtgKLJjodPLLvVzNnGHChg+uQc/r/RhsHmZgQ41Azvr31aP1t+ew+cPrcOaZNmRVZ6Dv6BAzyak4F13P+DkHpnpdyKvPZrA01jbB99VgN0DSa9B/fAibP7IOfW8OomhzPk789BSqb6mEOcOIluface0ntuDIfx1H7a1VOLu3A+YcMwZPDCN3ZRYKN+Wj89UeUDEw15CH71/5tcWwFdjQfbAPOz+9FT1H+uEf98GUZQKJ+kz2TWGsdRwT7ZN8/uSmrdpVzil3FIensGM0FOFUOpYJ12oYKIy0jSOvLnsaSNJqjL5TWiQU4RWapBceIFY71VDaMrhPS44Jw6dHsf/fDk3vkwIIyVXzoxvxTgYIF5sT6P275cs34MyzbRg6M8LPbdXOcuhNRLEHyreVIBqNo+WFs8hbmYPjP2/iBR0BDRLCEvU5wCqa5OXoaxhgQL6QtjwAYdwRx2+ewz/99If4/qv7UWNPY+LecccEqNq5UaXCtcVl2Fm/GkMjgzh9rgO+UBhFuXnYvGolXO4poWZoMkCtFqWWSWeASixvqF6B/977HIIxIC87iwmM5fm5cDgc0KlVKMnJRbrZzJMGGeqJYBQjjnH4olE8f+gooJGgikXQ456CLxrmqgxUSKmuMBff+9hfIO+mm8EKT0QG0klAYRaQnz+/MY2F4Tl0CK/81/+iu6+Pwxi33H8v6j/2J3MSDeNEYDrTCQRCQFEOkJ8zvz7n2GqhIYaS9xThPX+0kVfFZMwnux1YefsK9B3rZ233ql0V8Ax5UbatmA0JTbh6ix5BZwB6uxGdBzpRtKEIvgkvTj/bijUPrIar38lMZCpjm1ObhfXvXQ3viBd9JwZRuC6fAQUZ5L6j/TzhZxSnwZRjQe/hXhRvLsLh/zyKvhND2PwH6zDaNoa04jQ2TPaiNF7ZGtINWH37CjY2nkkPAq4QNjy8FqeeOo0z+9px97dvQ++RPvS82cdpUuRdIEU5Fa1MY8KI2opsCEz4eLVPtUNo5Xn6mRaUX1uGqQEXrv/kdnTu70Lh+gJ2+zU/3YKCNXko2VKE7KpMnH2lAzk1WUgvSYN3zMspWS0vtOOuf7oVsXCUXYn7vvnqktzTCx3knn++HW/820FUXleB9LI0vPA1Eddfe/8qmLPMKN1SjMleJzJK0nD48eNY/1A9x+vp3p3Z28buTvIC9DUMMjAoXJ2HcCiK/d89gP7GIT7W6ntXoWhdHoMKZ/8Ug7Hya0qgtxtw7vedyKrMROeBbgZNEx0OBha0sqfxq7utltnfldeV41d/9jQ2vn8dhyzcowTMJrDx/WvQ/FQLG3ajzQBbgRUV20qRtyYf537fgcafNzGpba623CEGep9oMXL9DTfiVPNJpGdkwm6348jhQzyeWVnZHGYcGhrEjh3Xo7u7G729XdMeurnO/1LfL+VkvdDzSGbf71aAoNyjS409vYPkWStYl4+dj21FJBTjtexo2zhO/PoUA9/NH9zA/AYC1qd/28YLq6A3hPTiNASmArwICAfCzJejNFNaXNBxg64gTJmm84ih4jsBuEPeIHtXJcNMoUOtQeK5nz18oSgmup3Tj9qMB8Hti0dffR0f/9wncKizC6VmK/zBAJq8Hs4kyJf0uHnVGlZSfL3xKEYmJ6HSaLCmogoVRYUIhygOE+MQgEoVh91iYdnjPKsNbb29ePVkE/Kys5GdlobC7BzEI0HWU1BLWtYfsEg6znqwmPRy8SU1jrSdxa/eOIyoSo1gyI8+v0ekRarIe6DDJ+66A498+GNQp2UB0QgLJcFmFq5+vWlh7xMVphoaQt9Pf4WS+26Hvrp27v0HR4ERh2BnrCgHjHOlQ859SNpioQCB9iE3ayK7eHZIgWWmtfSjRiQgVmF02iazCV6Pd5qBzMciFvKsGDx/JvKguPGkTu5gCifwn9Q/ZbaKcMHFmMvKcZh0qqHqnHoO6VBL1E6Y6xhag4Zjg+Tmm86FnTW8yvFoLAg8Kec0+9zJOFAu/PT3cvU9rU57Xihifndv/lsp10iM65gqOlOVUx5PJdWMwjyULqq43WnoyaVOeeZ0/cp5U1iGjLWyChE3StwbCiHRONEKnIiG5Jondz99L1brcfYuEQjzjHnZi6ScH3mN6L5mlKVxbJYmnEsp8ynbz3cklhsgzK7m2NbWwumL3d2dXAhtbGwUVpuNvYdFRcVc5IfSHF/93UsIBhfnQUqmkU5m3ymAoJ4bYKrAYJ/eF/JkphXZUbGthBc8/ccHMNHlZAXNgtW5DNjph7wRPqcfpjQjhy3o3SeFTa4aqlUj4ArAnG46L8MkHAwzKKCpmxYKBE6IfEmN5nSaN8iLwbYhFMXRxxunvZkzAMEbiEePn8IHP3AfuoZHka43YtjvQ084yGTAlVR3YcNGhANBNLScwWTAD6vRiG2rVqMwOwsqmuDCIYQiVNlRiBDptFqsKCrFt5/8FdRqLUrz85Bls6GmIBcBynSg7VSCs2DmTAIVMswmxFQ6PH3gIFoGhxAIk0hTFEO+Kfy/9r4DPM6rTPed3kczo96bJUu2ZLnJ3Y5r7DiVBAIhJJcFspQsLWzgLgub7bDUXWD3Pgu5S7nL0tNDSGLHLXG3ZVnu6r1rNKNpmnqf7xuNLNmSNVXj8p8HHjnS/5/ynvOf856vWt0utkUg16SqvHz8++c+h9SNW4KqBTqoaKPLMQG5OeHuTdc/FzoYJ3yzZ62IpBWNLQClWjbogaKcqCMnXttGNAQh2gEn24sg2e0TblNtEKLFMZb3EmGkGEl/kn2QJJog1NWdhcfjxrLltbBaRnn/KCgowum6E0yEDSlGzj3DrnsiEfp6u7F8RS1LGCgBVCxujsnENpltCwQhDIIQyUcawbOxzDt9D1ODLE0hCM6At/4i3v/gLlwaHIBBrsKoz4Mhnxc6kQirsvNQmpmFpvZ22N1uTvFMcQRKs3OxsKAABj2law7mOSCxCJ3XWVo93jlbhxMtLchNTUN+ZhbyKNyyQspSBtqYdUrKmyBnka5z3IklxUX44etv4MSVVqRo9JysacxhRfOYmT9mCmaiksvwhXt34/HHn4S4oATwBHW30KmBwmxAq40AzigftTuA1onIicV5QEr82pxPgkA2JLEGg4kSQX6Nkk/FekuLpf2bgSCQYSxJMJJVYtlQ4tXnePnsh/pzs9ggxHtckeCdzLapn8ncW5LZNo09md9UPNuepmJwnajDw+/bhYuWMZDQNxQHQy+WYEd5Jex2G3sc9DgdcBPzlkihkymgkclRlJOJ4pxspBuNUMikUMqk8Pn8+LeXfg+NUo/8jHRkmUwoy86BP+CFz+sFGTFTUiX6P5EFlUQCu9OJv/3DiwgExMjUprCUtdNqxqjHyTkWSBxamZWFH/zF08jevAMQyYKeCySKyDAB+dk3NE6M5AOb9VmSMrR1AVYbnXBAWRF4MHEqiSYIFF7W4XAgPT2djR1zc/MxPDzIWTOtFkucRjF7NSoVpbB2ISc3D12dHcjOzoHFYmEvDQpxm+hCH5BarQH1Y3R0hA9nvV7P/014zEch49Mx6xjHgbBYRjn8L3kIkDRteHgo4V2gDZRuCgaDEQMD/cjJycXw8DB0Oh2GhgYT3j4dXtQWFbvdzt+/yZTK/01rweEgy6foSzIJAo2N1hcRv7ExK88pza1Wq8fgYP/coufoh83SjuvblsBgMPD8ksFzIotWq2V7D4VCyes6NTWNpTD0vYdUiYlqn74hGh9lv6Vw2fQ9E+56fQr/dyILzTXF06G2+vt7eW91u92QyxWswkpkoTnXp6TwmUqXPdrfyK6GcKcz22abSLgYRScmCcJ4T3+g+Re/xCf/9q8w5PaBHAqdJAkga1SxGCUaPZ/BlMDp8oQtABEINUScqdEgl7GnQXZGBqpKijmnwv8c3IeW/gHkppiQn5WJ/Iw0pGu1nJ6ZAFWrFBAHwOI/Iga5xjR857WX0GW2Ydwf4FgLXr8PFu/4hDpCDJVcis/ccw8+9vhHICmuCBonUnAk0v8XZZPrRBQwRPgK6SVbuwCnGyjIDsZciGNJNEHYuvVutLY28QdLeSrG3eNYt3YDmpubcObMqTiOZOaqaletQUtzI8bH3UwO6DBYUrOMRbrzcTjSBnrX5i0YHhpiQ1n6wCoqFvFmfuDAOwmPgUDtfeixJ5gcWa0WPqDXrdsI86gZp04e54010aW0tIxJkSk1DadPncCGDXehvv40apYux6uvvJjo5nkjralZxhIkOkyIGPb29nJOBFqHsR5kySQIRHSLikugVqmZ+JHNQ/nCSjReucT7XmPj5YThS20XF5cy8aS2r1y5iLLyCrS3taK9vTXh0rqNm7agr7cHZWULcfjwIXzgAx/G8eNHWP188cK5hI2bKt6wYTNaWoJrh3JtLF68BE6nnfc0IkeJLERKyssruIkLF85h+fKVuHjxAhYtrsJbb/4xkU1Dq9WxLQ0F/qM0Ah0dbRgcHERGRiauXLkEp9MRdfuTBKGx7nTgAytXgmy+hieMDVUASHhPRoTvq16O081XEPD50Ox0sLV/qNAtP4sYFCdLAhQSwKTWYnTcw6GOF6SlsafCwoJsDmxksY8FPR7kwXgJFKTI7fOhvq0Vrx87DZFCjmGHHeNeaoXCLQXjHsgkUpSmmfBvT38WJTvvAaRqwDthnEgZFOmwptgLiS6DI8CAOWj7sKg47m0mmiBUV9fAarWyW6d5ZBgSiRTbtu1Ea1sz6s+cTjR6KCws5sOYCt3eiaSUly9kpk0LOtGFGPb2HTthG7OhtbUZ2aQmW1jJt7s9e95MdPNc/86d9zIGxO6HhgZ4c2toqENxyQL88fVXEt4HutUurKhkycHePW+iqrqGE5tl5eTi1VdeSHj71MDy5bUswSDC1NbegvzcAly8dB5Z2Tkxr8NkEgQaW2XlYhiNqWzoSeGadVo9Wlqa4Q/40NrSnFB8KyurWBpDbdNtnm71dadP8q2SyEoiC31HFNa6dEE5t/n44x/FsWOHmfxeunh9vIx49qW8vJK/KZKMjY6asWvXvXzhIMLd0FAfz6auq4skYHTxUSlVOHRoP3/HBn0Ku6m/8cZrCW2bKieCQKSIcoo0NV1GdmYO2tpbkZdfwBevaMskQWiuqws8u2M7Lo+Mot9P2RSAKpEMK8QKXPCPo13kg2tCrZBBHg5+PwYdNth8Xo5sSF6eZHSokamgUcphtdn4cFfJFchUa7AgPxfrF1Ww9wGxaLInoKyMNJkUFVGrVOPZn/8C434Rv0+hnp1eDzwBiqRIWRelkEtEeGrn3Xj6sSchraxid7ega6MUyM+IS5CiOYEkbwmWHngBow7Iy5zzlUgfSDRBoAOS8CeRGPujTySnoo2axFKJLiHdKInfaPOkfBj0k/oxX7r4UAx+UoNxBlDK7jnP7RP2NHZqn+YjZAwXr0xsc80j3TYoQRnN+dU5kPIGPx+FcyCIKMhR0M+b+iCeONRijWSZbIIQHBsZql01cpyv9TVb20QWYsV1rnVBbQfnMmikR/MbmuNEr+vQvkbnC33XIezp9zT2RBdqh+Y4+D0Fxz9fc07tUAnlHSLVChXqSyxzflWCcPpU4JnNd6HL7kTHxCFB3gvbRSp8WJKGQ75R/C4wBrVcjiW5+VAolbBb7RixWuCRiNDHGdB80MgUyDKloqO/l8/vXIMJegmpH8ScCnpJSTHyU41QUL5ymQIeskUQifDLdw/h1XPnIBPL2aKYnAh8gQC8EwSB4iWkpejx/Kc/i/K7d0OUYgCLO0hkYdQGjRNlV307E7YYLFagZygoPaBQzhQgKc4l0QQhzt0VqhMQuOkQSDZBuOkAETokIBAFApME4fLJk4HPb9qEYbcHbV4Pxz4IJUgirX6NSI4skRxn/Q70ww+9XIGVhSXsL0xiFTLSaxvoQ9tAPx/sokAARpWGbQgoSZJBpoBJqYRWoUCmKQWVRUUoysuBQaVCY1cnnnv5JbjovOcwvZR5QQz/hBqDJBMqCfDYXZvx7BMfg3zpiqAFJT1LjDUvFUgPGjgltgSAzm7A6goaJy7ImzOYUjT9mY0g5C0LulKSOxYlCiEMduzYxTpb8uMm11JmrF4v571PTU1nHTPpuTVqDRuskOEO/ZwPUX40YxfeERCIBwI3Igj6bB302XpuZrRzlOM+7Ni+C03NV5CengnLqBmZWdksjs/PL+SsjxRAqbevByqlmgMqkREaSQh6errmxW4mHpgIdQgIRIrAJEG4eOJ44BNr14GiE4wH/Oj3eTlRExUiCiSwIJ+CXLEUZvjhEYmwvqwSFtsYNAol1HIFG8ac72hF58gQ67VXFBTjSm8XBhx2jo0gF4uRqdIgVaHkwEhpBh1KCvKxv6EBx/t6OQASqRSCbVKKpokgL2IRUlUK/PyzX8TCXfdCZDRNRE4MAFo1UJxFKfEiHXvkz5OxR+cA4PYGVQuGxBhEzkYQVj25PKhXHPdyiE4SHVVVLWGVjVKlZkMkch9dsXI16upOcX4JkvTkZAeJBbmfsr63rZWNeYQiIHC7InAjgpC3PAe5S4KRVttPdHKY5urqpWzcRoZdRKgNKQaMWkaRlZXDxnZLly3HhfPnsHHjXWhqamQ7mtOnT3I4YbJjEYqAwO2IwCRB6Dp/LvDlnTtwuacfDr8fFB+QYoiFyEFImqBkrwUZGxVSpkU6zkmwX1tUDq1SyW6I5C53qb0NC3PzYXM60NTTjUF70CYhVaWBmBKvIIBCowl6uQwutxdjHjenXO5z2NHvdMBByY/YDpLiskvxYE0N/v5Tn4Fyzbqg7QF5L5D0IN0AZKfFLUjRDSe5bxAYHQNI37Mgf+5Mj1GuGEHFECVwwmsCAhMICCoGYSkICMSOwCRBOH/8eOCZ7dthNOhxsbsXPT4fSxCIGFxNmxLKpAhoAGhFYqSKpBj2e1FZUMQGZhQVjnIwUPAbl9sNDWXrE4kxMmbBkM0GnVwBnUzG6aS1dNCSnyMZa4lE0KjVMGh1kMhkGLBY0DxqhsXlgF8kwn9+/hmU3b0LIlNG0HOBbA+o7uLMoLg/0YXa7OwN5l2gjI2ZiVNpCAQh0ZMp1H+7IyAQhNt9hoXxzQcCkwSh4fjxwIdXr+WDl0iBC35QeIWQByVd5okoBFMtB3+SUP9JSQo+Jc/H37pacQROuAN+FBjSOMLimM2GsbExuH1edpfsso2y+oLeJ88FvUSCRakZMCnVGLPb4PGNc8AUvVKLFI0KOrUKRp0eS8rKsWhxJVTb7g1KDciIkqwYTfpgkqT5KEPmYNZGvw8oyU+oQaRAEOZjQoU2bmcEBIJwO8+uMLb5QmAaQXh87Tq+0HM85olEDun6FDSPWWD1B00GpxKE4EEPLIIclZAhUyzDoMiP9+CETQSoZDIsLyiF2+1B11A/um0WeAITbo1yJUwKBTJkSo7EqFMpoVMqoFQqcLG1BWK5DJl6AzJNRizOz8Pm++6DtHYDECD3hgnXRiIH+giTMkWLbEd3MO8ChXPOTSwpGRoawuuvJza4RrQwCO8JCNwKCOTn57E0s6+vnyM1CkVAQEAgcgRqa2uxaFElROeOnwg8sW59UHTPAY+CJoIpSiXWLlqIpuFBHGrrwPjE30OqByIM9G8iCoUiKb4syUKqSIV/9XbhTGAcDyxdyRG9BoaH2CVy2GrBkNPOORjKsrNhG7XA7XQhRSaHQamASa/jwDmkYhD5fUhNSUGmQY/NS5ajdOtOiEoXBKUHlPugIAMQU+sJLrTB9I0Ecz7kZwKaxJISkrrU1yc2sEeCEROqFxAQEBAQEBC4xRGorq7m1OiicydOBJ5ct2FawBYR3dYhgkmtxGPr18Dm9+DQlUac6unhKIkhtcNUskBGjIWQwI4AeuHD/YuWwqDWcDhfi82OrqEBdI6Z2ash12CEUiJD9+gwlCIx0uQKmNQapGq00Gu1UCko9TP5M/iQaTRhQ9VSZO/aDVFOPpBtAkyJ8SKYNqdEiLoHAIcrqFagcM5zZXqMcVG0t3fgu9/7foy1CK8LCNy5COzauYNDSR85chSdXYmNw3/noiyM/HZHYOuWLXjooQeCBOHD69ZBJhLB6fVx8CKZWMrZGSEKIFOlxSd3boNOpUDf2BjebbyM99ra0TtmY4cCkiCEPB1I9RDyftCKJKjOyUOhKR0urxf91lF0mIcx4HRwcqYUmRIDLhu8AT+UIinSZXLkavVI02qQqtXCoNVCKZdy6uiitHRUVlQj/YEHIKqpCEZQTHRxu4HuIWDcDeSkAfr4ZW2creuCDUKiJ1Wo/3ZHQLBBuN1nWBjffCAwaYNQf/x44IFVq9hPnsKdenx+9lKgG73b6+UwyqlKFb744P0wqBVw+cZhdblQ196JP549i3arnYMmkVSBju0QYeDwyyIxsvUGDprkcLlg8/tg83kg4VrJa5FsHsgJkuQKAeQpNMhVq5Ch1SFdr4dOpeYIjlq1ErlGI6pqliP1U0/FPUnS9YAHgIERYMwRDMpUkht0cUxwEQhCggGOoHpKhEKr32WbnuWSwkS73ePQp6bDO2bGuC8wL2GqI+j6Hf2oQBBu3ulXaFJgUMvh9brh8PjZ7Z2SdllsThhStBgdHoSPA+YJJdkITBKEcydPBu5buZJdG+kIJK+DrQsqUJiRhgOn6iaiGoqQk5KCLzxwL4wqGUdM9Hl9cHjc6Biz4IVjp3CyoxOeQAAyiCBlAhCAQkyejAFQhHc3gj9DBo/yCVlDMBo7/d4PuUiMYqUCqUo10nR6GNUa6DUqpKg0nLHKpNNhxdLlyPmrZwCFMnEYks0BhVV2uYC0VCB1HlQaAASCkLgpjaRmIqyf/+t/gtvmhFJhgWpgCI7CWphk47hw9B30qUqwe0052uoOo1uRD4PCg9d+8u8Y8QibWyQ4J+JZgSAkAtXY6pTpM/GlTz6JH//r97Bp1UL4S9ZAbB7EkEeOlksXUb7zURz89X9A7bHA5qQoPEJJNgKTBOHSqZOBf37gfmTrdNCJpZAplfBKJJAoNdhz5hRcgVBMBBEKjCb8+d07YNAEj3cqjnEXJBI5Rlx2nGxpx1v19Riy2iAhrwgRSQeoTCghKKpfwA+XzwfnRLbGUD3BnyIYJFLkKVVIUSiQolYjVauDSatDilIFmUzKkRvzc/JQc+9DUO3cCGgp92ScCwVFGrEEIydSYCRp4qUHNAKBIMR5HqOsjgjC7vsfwKBHi5WrliKr+yx+dNaMlQVpyFdYcMllwtZV5Wh65SdodihQUFSE3770epStCa/FEwGBIMQTzfjUpTTl4n9/+gl895vfxrY1C/FSI/CR9YWoHxZj+YI8vHWmDfetq8bvf/pDmO0CQYgP6rHVMkkQuuvrAz9/5GFI5HKopXJIZBKOSSASSThioicQzPTnDwQPe6NGA6NSAa1ahfS0VHi8boz7AZFEzAGPFFIZukZGcKq9DQ2tHRi1WhDwBzN7EQmgxE5un59jJNh9PtgDwcBMIRpBsgejVIFspRJ6hRwGlRopag23q1YqOVU0RV7UylUoLihFYe0KpG5eC3FJQXwiHFLWxp7hoHGiRpmQrI2zTZ1AEGJb1Ml4O6CgEOJijFjHktG80OY1CAgEQVgSAgKxI3A11HJdXeDH9z8AiUwKsUTCiUjkMhkn/yGbhADf+gPBZEpkpyASsypCq1JCQ0RBp4VfIoUz4INMIUemVodUnZ5zMoz7fegeMeNiTzfOtbZg2GJh1YTbFyQdXpIkTIRuHgv4OVZC0JZBBL1UinS5Aka5CnqVElqlCkq5AhqlEgqFHGqZHCq5kuMn5Kano2hVLbK3bYairCQ2ewGrFRiakB6UUmCkeTCInJhPgSDEvrCFGu5sBASCcGfPvzD6+CAwSRB6z54N/PyRRzDudrM9nojymZOL4URec4pgyLID/h/9XgIFJQmSSdkgUavTscRBrVAgIJXALfKz4Um6wcCxFFRKJXsiOP0BXO7uxpGLF9DcM8AhmSn7IBlCev2kdggEJQp+D6shKATz4uxcjFtt7E2hl5N0IujVQEmKtAoVNCoFFHIZVHIFDFoVMjVGGLMzkbN2NXSLK2Grv4iUkiJol1RCFI4XAuWn7x0E7E5AKQcKcuKDdpi1CAQhTKCExwQEZkFAIAjC0hAQiB2BSYIweP5c4I2nPg6ZTA4/RDBbxjhugcs7Dq+PbvTk7kgXaRl8Pj/8fhFkEhFUSgU0auVkqmE6vIkY6NQa+CQiPZykzAAAIABJREFUuCUBNi7MTTXBZDBAIpYEVQwQo9c6ioP1DbjY0oqRsTGMu73w+APwB/xwer1w+LyskihOz0QnpZFGADqpnNULcrEUcokEcpIgyGSTagelQgqtnNJKq7gfFEVBp9ZCr9EhzZCC/A2rkbJhNSRGA8Rq5cwxDcZswLAVcLqBwmxAPQ+5HqbMpUAQYl/YQg13NgICQbiz518YfXwQuCpBaDgb+O3jj7GXgEKuYNUApQuWUuoDiOB2e+H0eDA6ZsOozc6qBrImoBTNcjnd5un/cj60SZJA4n+5VAaNRgWJUsGuEUa1FoVZ2VAo5RAHxGyvQKkNKMnTsdZmHKirh9lmw7jLBa8vSBbIRmHc44WN8jn4fJARKZDKOMCSSkT/lrIqhP6vksmhpJ8KGZRyJdsoBCDhVMg6pRoqqRQasmVQqkEhpE3FRTBtXgNNVTlEJCngmA8ISg9srmDeh9Lc+CAdbi2BAE6dPoMdd98T7hvCcwICAgLXICAQBGFJCAjEjsAkQbCYzYGThw7xARk0I6TL9dUwxiHvAgquyLkaSIpAiZ0mHgk9y++G6gj+k9UUoQdJZSCRkAki/ZEqo5aCho+sYiAVB8VTmDCGpNDP9LeWlla09VAS6mAIaHqV6uDmJwwfQwaQwT4Fn+GfAQ+2bFw3+d/UB35WRLklRJxOWqxSBm0WqF7K9UARFCmM8zzEPZg6jSk6HcbsToEgxL62hRruYAQEgnAHT74w9LghMEkQrFZr4GaO/9/Y2IhOc3Tjdln7sHv7xuhenue3TCYTnM7xpBEEkv54KbV1kgqphcguJRmFiCyR02QVpVIJF8XcSEIJEfxgDpb5L/EeezIJAiWJclME1iSVZH/DyRw/GdWT4XuyCn1HyfqGQmOO5z4mEIRkraRZ2o0XQcitycZImxlOS2QHTrI3lzuZIKhUKjidzqSsyGQThHiPPZkEYT7WcPbiTFh6rHCYr18vZLxNattklfkY/2xjEwhCUGIfr4uOQBCS9RUlmCAsvr8C3Wd6Mdo5PUTwXMMVCELyJAjxPiTnmuupf7+dCQIZ/T76wcfR1trCbtvkoXXk8CHk5RfA4/awqtFgMKKpqRE2W+xxLKYekAqdHONjsUsTaH7kWtlkXRW7yjBwaYgvAdcWgSAIEgSBIESw+92qKgadTg+Xy4mMjEx0d3fxz9FRMyg/gMPhgNFoZJG0x+1mOwqLZTQCVGZ+dDaCIFVIodQrYBu0x9zG1AoUOgXGx66qFJJ5+4gn844GJIEgxE96MlWCcPTocXzwQx/B2fo6FBYWYWhoEM3NTSgrWwijyQixSIKmpivwej1obW2ZCBAXfRp5uUIB9/g4ZCoZtn11A/709X3RLIdp7+izdVj91HLs+YeDc4qwZXI57wnJKsn4hvVZOmRWpcM16obH4cZQ0zC87vknCrSHsP1cklR1NOex7GPU76nqsdtCgkDxEnq62pGbXzzjN3GrEgQ6MChl7bZtu/CrX/0C99//PuzZ8yZWrlzFnh5paWkYtViQn1/AdgO///2vJw1LKYYFB7WKsMxGEHKWZKH0rmIc+uERJgpFawtw6c3GCGsnR5Fgv+inTCnF+3/0AP7wuVcxbgtuaMnYXGbT3WVWpsOQn4LLbzVFPM5oXhAIQvQE4doNeS4Vg9FoYo+tRYuqsX//3jk3dLFExNFlPa657XOSuYZp3d2JEgRTkRElGwrhGHTAbnGi50xvWHMVzXd6o3cEG4R4IxpmfTcyUjy05zWcOLIfX/zat6d5XoSqvlUJws6d9+LSpQsoL6/AuXP1WL6iFhcvnEdvbzfuf+Bh+DwedPf2wG4bA0kbDh8+xONPydVh2QeWYP+/vhcmulcfm0oQ1KkqeF1euO0eaNLUsA87+MGNn16N+pcuwNoTvji2YGUOitYVQZ+lxVv/tA+bPrsOKbl6vPzsG3j4+/fi5S+/weLTZG6u1zJvwtHtCOpynebIbDkiBh5AMgkC9TeZm1usY4+UIEQ6P7lLs1Gxsxx7/+XAnK8mcw3fqQQhNCnaNA0qdpax6mWwaRgFK3PRWdcT0V415wTf4IFkfkOzXXRiGc9tIUH41nNfgN1mxUMf+hiW1W64Do9blSBEO7FiqRhytQwua+TeAFMJwpKHF8FUYIBUHUzKdfT5E7CPOFG0Jh+lG4tgH3Lg8E9OcDfv+vw6pJen44XPvQK/b7rkgj6aDU+vQcfxTgw1jyB/RQ6UKSo07mvmOnSZWtgG7HyLm6/NlfDxjvvYXTdUSjcUofVoB/xeP7Y8swEOswP6HD1vNg0vXIDbmVjDr1gPyWjXS4gc0M9wRaOkGrrvGzvx4udfm4ZhtH2I99jnkiCE28/UUhOGm0fY/VljUkOqlEAql4K+MY/TA5/bh7EBO8jWQJuuYZsfjUEL66A13Cbi/lw0EgQaj8qohH0weAkg8i5VSOCyjPPY6TsNt8zXNzxTf5RaBYxFBjbOdo46J/eW2fZC2ge2fGkD3vyHfah5eDGGWobRfaYv3KFe95xAEKKGLrYXZ5MgHHt3L/744i+58vTMHDz97D9cJ0W40wgCYUHi0NyaLHSc7I4I+BBBWPLQIjQfakXB6gIYc/U48n9PYuVHliKzIh3NB1rRd2kQugwNJFIJb5akMqANMrXIAFWqGsd/VoeBy4MQSUSoed9ieFwe3mTov4PRMYDW99r5pzE/BXnLc5nxm5tGE+7mSNKQB/5lF/74tbdh6R1D7RPLWJXQdboHMpUUpmITvC4Pjv7XKWSUpaJkUzHe/fejEeEYzcPxPiQj6UM0Roq5SzIx0mmF8xpLeloHBbW5uPDHK2F3Id5jj5UgSOUSrP/0aqhNKuz55gF4nF7UPrEUxkIjZArKVyPmNW3tG8PhH5/AskerkVOdhfoXziGrMhMn/+dM2GOP94PREARjgQHl20px7KenuDvbvrwJSp2Cx0eqtpZDbUjJS2EDz0M/PDwpvic7C7ocBLw+jLRbUPe7hnkj+TPhNtWLYe0nVsI56kLP2T4eQ8PLF68/0MUimAoNGG41Q52qhm/cC4mcSKCEbRgcI5GpvQSCEO/VHGZ9MxGE8XEXvvm1z8JP4RgnygOPfhQrVm+aVuudSBAUWjkffB0nuthYqnxHGd7+x3eQkqfHcIuZP4LqBytx5nfnGCtNmgb2ITsbaGmz1Lj7a1vx4hdfg98bgKnIgMHGYSYBuUuz0F3Xy3Gk6KMrqM3jm7jP40PnyW6uX5uqhiEvBd1n+1jaEPAF8N5/Hgf1KaM8lTeZ5kNtk3OUU5OFotX56L84CLVOjZZjbey+RbYK1He6pU296c+2ZMimgQNuubxMjnovDMDvuSohID1yRkU6Clfl4/JbV7Dh6bW8udNNo3B1Po/F0mOBbdCBvvP9jBN98HSTCkf3HOZSnvWxeB+SkfQnEoJA64Dmklxph1tHMNp19bacVmKCLlsHS7cFI23hG83Ge+yxEgQaY95SGp8Zaz6xkonjm39/vbHh4vsWouLuctS/cB5N+1uw9dmNkMmlOP27BgxeGQprCnb89WYo1DL+Xup+0zD5TtmWEvj9AeRUZTJZJYnFXGX1n62AKkXJ3wsdjE0HWpkM03dEpbu+F+Qi6ff60Ha8C/W/P8dzufapWpz4f3XY9Tfb+LnDPz6O3nP9/O+sxRnIrMyAuc0MiUIC+6Cd1Y6GAgM6T3WjYEUuJ9+jW/rA5aGbhiBkV2fyga82qaFJVWPgyhB0GVo++K29Y0wM6IIw3EIB+IJFbVRh8zPrIVPK4Bhx4O1vzK1SmjonAkGYa4Um6O8zEYT+nk7sfePFaS2mZmRh5/2P3vEEgQCo3F3OtxrSyzXubYLL7sHi3eVoOtCGnOpM2IbtaDnYzrk1tnxhPQ784DBG262cilubrsZY/9weC9u/sgkHf3SEN4xQURqULK6jm6UuS4f3/s+xyb/R7ZJUCqHNZ+pEkbhv0T0VyFhowlDTCMxdFqx8fCnfSoh8hAwZ6R268Y92WTiwJtU5bhvHig8vhbXXiivvtGDtJ2pR95t6PuxDpXBVHpY/VsNqjkM/OoLMRelIydYhd2kO9n//PZB40mlNvK3BbJ9IvA/JSD7FSAgCkb81H1+JP/393olIqMGW0kpNWPJIFcuHyP4lb3kOXBYX0svTEPD6mZQS0aLbGZE+qTKYIdU77oU4IIFYedVzgMghqbNobkmaQ2orfs/rZyNZWh/6HC0QEME+bEf7sa5pRrmxEoSaRxbz4UpSLyIHdMDOdJukPsm1crjGxpmMyjUyyOUK2K12ljLQOOcqdEBToUOdJBWhQu/T3yiWrMfhZRI+V1GmKMCBisbdTNzFUiK4VzPRBkilRpb2Xt9EqPsA6HckBaQx0AFJhQ57UrVRoTlY+mg13vuPo3wxIGxoHolAnfpVPcztlmkEPpkqhpniINBaDeFryk/hNdR7boAvO0SiZpIsTMVZppbBM2GLNBv+JGnyefzQpWkw1DYy7buYa87i/fdYvBiu7cttYYMwF8B3ogThWkxyl+dg+QermfFnLEznDdfcboZUJkFGZQYO/Nt72PU3W9F3bgDHfnaaD9xYC1kVtx/vCmuTpLbYEOzuMuz91kEUrS9A1X0VOPGLOuStyIW1y4rG/S2TXbr7a1uw77vvwuf2YvOXNkJjUKL+xfMwFRrZPuKlv3xj2oZK5GPbVzbh6PMnWT8Z0kne9YV1uPDaZVZvxPPDiga7+SYIaz62Aid/eQY+91Upy1w2CHSQ1LxvERpeucQHO22yw81miGVi3PuPO5hokbRpxWNLoM/W4/KeJmRXZfBhQ7p7t8vDInrPuA9yVfDgYumMXwyZShyEjSKw+wJMYPUZWrhdXj6A6H06JFUGJd8GiSRS6lkiso37rq4NqiJWgiBVSeFz+cK2yZg636ED8u6vbmbyHI0tUKi+B799D/rO9UOXpcV7/3kMztHZv0tyhVzxoSVwjrgw0DIMiUyMlR+uwd5vH+KbPZW7/3oLDv7wMBsEP/jtXdCma1mC1vDKRVzZ2zznsqX5Ty0x8rfSf2kQ6z65Cg0vnmc7jFC52QjCTIMi6QLtdURqyfg6a1EG2o52sLSkt2Fgct6JGD703d3saRUiTFPrC6lXqx6oZHsNUtO89tU3J8kq/Z0uMddKQIn80e/o7zPVO+dE3OCBeO5jAkGIZSYS8G68IimG0zUSua98YilO/fIsb7xkaFW0ugAFq/Px9j/F7rsdTh+ufebakLtkL3D317dCrVdg/w8Os3ojVLQZGlTuLENWdTZe+8qfJjJ6gEWspHucWujW03t+AAOXBmftVjw/rGjGPp8EgdQx2kwtCmvzkF2dxZ4ldAOejSDQRkkEM70sDW9/Y/+kNGftn9eifEsJLL02XHjtEq68M3HIhIQBYXraxnvsUwkCBUqqqFiMlJQUnG2oR3FRMerqgrr2UNFotLDbbUF+IgKUM6yhcOc0dEDGKm6m23xwHQfzz4TmhuaCJAMzBWCiNskGwe0Jug1zH6a4O0/tE0uNaJ4CE9lwwpgrItplW0tY3Xh5TzO/HvL0IUkDSTxUWhXslqAEZaR9lD2XLBF4PIWL80zPhRtJcemjVTj7wgWUby9lFUPF9gU4/PxJLHnfItT/4Twf2vSNiKQieOzeGb8LUr3e83fbIVPIcOGNy0gtNuLgDw6z5CtUHvrObla37fv+dI+yB791D/Z97xCrdH77mZdjGfJ178ZzHxMIQlynJvbKphIE2tBoswnFQVizZgNsNiuysnIwNDiAvLx8jFotyMrM4tCaL7zw25g7IJVJ2abjWk+EmCsOs4KZbh+00dBtccdXN+Ptf96HrX+5EdY+G1KLjKyGePuf988opdjxV3fh5H+fwc7ntqH1cDvrd9322QPIxPPDCnO40x6L9yE5Wx+Wvr+K7Ucuv92ErjO9oJunpZPExLMHeKGbDs2BIVeP/No8HJiy4ZFHA501JAkIR6Q+U7/iPfapBOHIkWN4+OFHOYoifSdXrlxGV1cHioqKYTCa2O6GAiR5PRQoae5b9FxzO3UNkxQtrTSVb9uOYQdLPwhvMoilWycd3hfeuAJzx1V7DTq4N31uLf/u7IsXpjVH5GDXc1tx7uWLaD3SMWNXojFSpIoWbCpCy5GOaXY7Nxor3bapP6T+o0L2GHQjlyvlcFidLME4+vwpLP1AFU79Tz2L4BNdwiUI1/aDjLof/O5uvPyl1yf7SbFfKncvxN5vHsBD39vNrpLvfOfQ5KtEkkjdxQarTg+TJlIRTZUW0N9pjqeqR6kC+j39jn5ee5mJFaN47mMCQYh1NuL8/lSCsH79JnR0tmPN6vXYt+9t1NauQcO5egwPDeK++98HqViM1vZW2G22yTgI9IHEUpIdavlGSXvkajm2PLMOJ391lnXDIb3gbLpZctUi90mFXg59jg59DQM3hCbazSUWvKe+q1Kr4XRMdyfLW5YNOoCbD7ZhwaZidNX38u3G7/FFFCmONjESU5NhoWPUwSqBvrMDWPupWuz9xsFJz5/QLZVc+sigs+1IByp3laH4riK8+dxeVkcQWQhHHx4JLrESBM4wOyXR1lSCcPr0GVQvWcq5X0dGhpCSYkBbWyuWL6+FTC7DQH8fG862NDdhZCSoaoqlTCUImVUZ0KWrmdC6rG4otDKQnYC51YKcpVl8fe892z/N3ocOmrJtJWg/0nndwUL68OL1+Wg/1o3xWdyYoyUIWdUZGLoyzLYLsRQa/8o/q0HLu+3Y+Bdr+Gfhmny8+pU/TbNViqWN2d6N5RsmG5mpBJewzl2WhfbDXfy90EE/lzogqyoTWRXpOPP7oPE3lc1fXI+0BaZJ+xuyfyBStfrjK1jy6Rpzs10WEcYjE27jU8e35dmNaNzbzMay7AMmEbN6j/pCEhv6N6nfyKCV1o7f44VEFlTfkVCIyAt9H0Q8SWpMYiP+KQqqPuhdenDc7sYbz+3l/SFU5pUg9PT2w+6MLgRof08HpAp1VGvK73WzC2R0JYDSoryYN41w255PFcNMfUo2QbiR/pIWeMGqXPZTpo9irkIfDxlXHf/p6bB0yfFk3nP17dq/E5mpvm8RzrzQwOGsQx4C5FpKFtWnf3MWSx5ezDfHnCWZfODQJkObGunrb+TlQaJPMhwlC3c68Ot+3TCJB3lo0KFP3iaUu8Pr8bExIFl+k5SB9NJLH1mMK/taIvKFj3T8sRKEa9ubywaBDlFaTxqtFuaRq1bskfZ7pudnWsPLH1vCt226NZI3QNbizEmXwlAddEBcevPKdQc0SW1yl2Xjyp5mrHmqlo1+ad7IS0lM2Qs9PgT8fv55/vXLcFs8SU/W5PF5Jg8wulVTHgnyiLqRBC8e2MdCEOZqv2LHAqjTNBwPg+w26Ns787uGaSSOiHjZlmI2DE3J0bN0aKzfxtKUkM0BSVLocCd1DUsWRGBbkUtvNfEhTfY7MqUcLqsL5167iOK1Bbj4p0Y2lqWHRWTWQN+8P8D10r/ZfTyoiQJIUDOF41Jboei1IWNkIhJUQn3if3unG8nS7+aVINQ1XIHZGV2Mc2vPBTz00INzzeGMfx8cHERDa/guV1Mr8fs82FxbzmLI+SgCQYhfumfaRMl9kV0qw9CvJoMgUB8X7V6IkvWFaHqnDWV3l6Du12fZLsBpdkCqlLErKhmQdp7uYb980vme+uUZPsjJMHCgcZjdMsnKnkTZoUIxK6oeqIBUJYOVMv+NOHH5rUa+sUwtJF7d8PRqvpGSEWtOTTZLD/Z9+xBKNxai9WgnS2ISWeabICRyLEQQ6IAkLw33RAjxwjV5QSNNB8UDsbMxLXlJTC3k7ks2MnS4TDVsJLUEhRLuOz+AirsX8KFDN8DSTUVMEMhlkTZ62vQ7TnTDPx5IOkG4NmU7eTzkLM3G8Z+dTiT0rEZKVLrn7KpMvrEr9UrOH0P2CR3Hu6ddVugATl1gYvsFbZqaLzMzZdycCgJ5++gyNWja38buokQI6FJAhuL0zRPBJxfwcEs89zGBIMyBukAQwl2W8XkumRbQ8fywwkWDDufi9QVo2t/KoZa98GDDZ9Zwshly1wwlsmKd5ZibRZ0LNhejZF0hLu9thtqoZJ0p3TzyarJx8IdHJpsm90K1QYnCtQXobehF4zvTD6SpfUwvT0Xx2kK+wZIIkza1jZ9Zw26fjmEn6v9wVWQa7tgiee52Iwh5q7JRsCqPPW0iKbQWVj25An/4/KsczyPcYsjXo3LnQhx5/sQdmYshhFMiCIJCI2fJWjj2NdEYphIxNLeNclwaUmuQR07I6yTc+Z/6XDz3MYEgCARhGgI3s4ohmo8lknfi+WFF0m7o2amHJAXJoVtjKLLdtfVRnIpxu4ftMEhUWb59Ac69cpHtAzZ+ZjWO/fw0SwTCTSoXEj2mL0yDRCpiP/H5LLcbQbj2Bh0ulmTsGe6czVZntDYI4fZxrueSSfITQRAoiFT3mR6WzsxVIiUIFK1y1cdWsPeDkuJhiEQc0n1qgLe52rz27/HcxwSCIBAEgSBMIBDPDyvSj5qev/aQvFFGTtJnP/ide/CHz77KunRtpgZikQh5K/Lgtrs4sRBJJ1758p/CMiiMJFBSNGOb6x2BIIDF1xQ74dWvvjUXXNP+TkHPyKbh9K/P8u8FghCbkeV14EfgshspQeC4EsVGjh0yU7tkfzI1Umk4CyOe+9hNSRC6O1qRWzA9dXMibBAG+rqRkZV7Q8wFFUM4SzJ+zyTz9hHPDysaRCI9JMlAaarrGNknkF83RbaTyMX809w5Gpb9hUAQopmxmd+Jdg3THJCnCYUBjqSQHQvprCkAWLwJwro/r2VX4VCsg3D6Fe34w6l7rmcSIUGYq82pf4+UINyobiL4G59ezWrDSNzO47mP3TQEgXyQTx7dj6MH30bRggo89MGPTcMuEQTh7778FBYuWoqNW3dfR0hCjSeTIGRn53AY5CU1Ndi75y2sWLEKFy6cw+LF1TCPDKOgsAhm8wisFgvUGg0aGuojWcszPiuoGBLvqz3bJEVKEGKe7CkVCAQhfmgm84CMN0EwFRsx2jEa0QGVzPHfTgQh2hV5WxGEcZcT584cx4G3X4VlNOhutGzVhnkhCM99KUhCRCIxFtWswPrNu5CTVzQtG2QyCUJubh5GRkZwz+778fJLv8eaNevZj3tszIaFCyuQnZWDlrYWGFJS2A3ztddejtnbQiAIAkGIdmOK5b1YyRHFQJgtDsLhw4nPxDl17Mk8IONNEKKZ02SOXyAIlGpDPO1biGYOQ+8kXYJQf+oI9v3pJZhHrrpxzDdBIDAkEikKihbg0f/1Gag12klMk0kQSkpK4XA4kJqait7eHqSnZ6KlpYldmCoXVcE+NoZx9zjcbjfrHQcGgtnXYinxXFzR9COZBCWe4sFoxp5s3XEyxx/vsc8VByGa+Qn3nWSu4eBeljhXv3AwSOb4k71/JfMbCs1NPPuQdIIQGtT5+pN4+bc/BUkU5pMgkB8x2Ts88YlnoFAqr1v/ySQI4XyM8XiGQjaTqqKqqgYnThzF2rUbcOrUcVZlnDp1Ih5N3LCO0tIyltoQ0bFaLaioqOS4+SdPnsDwcHgpc6PtZEZGJhOuiopFOHbsMGfiCwT8WLJkKU6cuJqFMtr653qvpGQBXC4ndDodGhuvsJSI2u/r64tL2N8btU+kmEgoYd/X18NjX7iwkuehoeEMXK7EZrYkCdng4AA2bdqK/fv34q7NW9HT3YWsrGzs27dnLuhu+Pf5JgiFhcUcvnnZshU4ffok1q3bwCGdU1PTcPHi+ZjGMtfLNH9r121Ac1MjKKfE4GA/qqqWwGKx8E3y0qXp4Zrnqi+av9M3TCRvbMzKl5mVK1eDoqIeP36U13cii0wmh9FoRE5uHhqvXOL1m5tbgMrKRXjvvQOwWq+mI09EP6RSGYe9JykYrQGlUoUFC8o59Erd6ROI1qMl3L7q9SnQanX8LR858i5HCKWIoIurqvHKyy+EW82Mz900BIF65/N50dJ0EU2XzuGeBx+b1uFE2CD890++z6oMjU4/Ta0wteE7gSDQplJWthAUpOnQoQOoqVnGiWvod6+++mJYUQhjWYXr1m+CZdQMhUKJy5cv4gOPPgaX08mHRl/f1eRMsbQx27sqlRrVS2p4cztx/Bh27rwHLS3NyM8vxJtvvp7wsdcsXQ73+DiIqJw8eRz33vsgLJZRdHS0JfxgodvW8uWroNNpodXqceXKRRQXl6Kp6TL/95kz0xMaxRt/Ikejo2bYbGOgeSBi6nDYeYN9660/xtTcfBMEku7R90MH5dtvv4HNW7aju6sTZEe0d29kXgnRDPyRRz7E64YIdl3dSWzbvhN2mx0ejxtHj05PFBRN/XO9Q+RuaHCQxds0p7SuWloaOVS8ZTS6IHVztRn6O7VJ36terwcdlpSoSqlQIiXFiCNHDiX8kkHtEyHT6fT8f/p28/ILcPHCeSb+ZDeWyELpvWkPtVpGceHCBWzadBc6OzuxevVa/Pznz8e0h91UBCEEIt2gyC5gakkEQQjFp77R5N0JBIEYsFarZYkBLebKysU4d66e//vIkcRvLqULyiARS3hzoRsIsXGv14vmliaMms2J/LbYZiM1LQ1lCxbiwoUGSKVyuN0uLFpUhcOHIwtyE01H8/Lz2cuAbppdXZ18g6eNnjbZ7u6uaKqM6J2iohJoNBqMmEfgcbuRk5MLupERSaAbaCJLWlo6bDYbVqyo5bHTAUvjNhhMfMjFUuabIBCGHo+Xx0I39spFi9He2oq09HTU19fFMpSw3qV2KWIs3drHx11IS8vA8PAg55hobYk9AdVcnShfWAGpRAqP14OR4WEmStQXksI5ndPzi8xVVzR/p++HSAJJT0gtS/+m9s+fb5jM0hlNveG+Q3sWrVuyESOJAX1HRHQvXTqPsbHIvFLCbXMqQSoqLkFuTh6PlyRwJDUpKChkcjjVNifSum9KgjDTIBJBEMLc+gh+AAADtElEQVQB604gCOHgIDwjIHArITDfBOFWwkboq4BAuAgIBGEOpG52gkC6JxLRCkVAQEDgKgKREgS68fX0zB0pT8BYQOBOQkAgCLcQQaAY/Zx73OXB0edPsm7p0Uc/zOJZ8nRwucZZZK5P0ePdQweQl1eA7JxcFjmSTo70kwajCb093Th8+Gpe8ztpwQtjvTMQuBFBoNTDhbX5DETTwRb01Pdh587dMJvNyM8vYJ11cXEJG+pWVCzGiy/+Dk88+XGOM1JaugDnz53lv5MKhozSmpub7gxQhVHecQjMK0HYd+AQmtuiY+mZJi2279gR1QT19/Vhz4GrSWwiqUQiEeOJDz0cc3yBcNuMNJsjGUGR9Tn5Hvf393EG8Ly8QjgcNozZbJCIxWxfkJqaDhrL0NAQW7gm2jsg3PEKzwkIJAKBaCQITqeTdde9vd3QaXWwjllZl9zR0Q6jyYT+vl4m3GQXQx4Yra0tIAMx4VtKxAwKdd4MCMwrQYhlwI2Njeg0h5Gzd4ZGXNZ+7N6+MZbm5+3dSAnCvHVMaEhA4BZCIFKCcAsNTeiqgMC8IXCLEYTocHFZ+wSCEB10wlsCArckAgJBuCWnTej0TYaAQBBusgkRJAg32YQI3bklERAIwi05bUKnbzIEBIJwk00IEYT8/HzU18eeeOkmG5rQHQEBAQEBAQGBWwiB6upqjmorslqtgZv5UAraIExHloLpmIcHpv2Sgu2kpmdN+92tpmIQCMIt9AUJXRUQEBAQELhNEbilCYLDPoZvPfeFaaEkixdU4qOfflYgCLfpghWGJSAgICAgICAwPwjc0gSBIHrltz/DqWMHJ9H6+F/8FQqKywSCMD/rR2hFQEBAQEBAQOA2ReCWJwg+nw//8jef4yyQZRXV+MhTX7xuqgQVw226eoVhCQgICAgICAgkDIFbniAQMi/95r9Qd/xdfPTTX0bxggqBICRsuQgVCwgICAgICAjcKQjcFgRh3OXCq7/7Gd7/xKdmnDdBgnCnLGdhnAICAgICAgIC8ULgtiAIBAZ5NFAegpmKQBDitVyEegQEBAQEBAQE7hQEbhuCcKMJEwjCnbKchXEKCAgICAgICMQLAYEgxAvJONUjBEqKE5BCNQICAgICAgICMSEgEISY4Iv/ywJBiD+mQo0CAgICAgICApEjcMsQhIaGBhytuxz5CAGoFWI8/sGHo3p3vl8SCMJ8Iy60JyAgICAgICAwEwKTBOHrX/96dLmUBVwFBAQEBAQEBAQEBARuWwT+P1vCrHcPIxIAAAAAAElFTkSuQmCC;" parent="1" vertex="1">
                    <mxGeometry x="10" y="150" width="200" height="75" as="geometry"/>
                </mxCell>
                <mxCell id="42" style="edgeStyle=none;html=1;entryX=1;entryY=0.5;entryDx=0;entryDy=0;" edge="1" parent="1" source="39" target="41">
                    <mxGeometry relative="1" as="geometry"/>
                </mxCell>
                <mxCell id="39" value="accelerometer&lt;br&gt;MPU6050" style="whiteSpace=wrap;html=1;verticalAlign=top;" vertex="1" parent="1">
                    <mxGeometry x="680" y="330" width="130" height="40" as="geometry"/>
                </mxCell>
                <mxCell id="43" style="edgeStyle=none;html=1;exitX=0.75;exitY=0;exitDx=0;exitDy=0;entryX=0.75;entryY=1;entryDx=0;entryDy=0;" edge="1" parent="1" source="41" target="11">
                    <mxGeometry relative="1" as="geometry"/>
                </mxCell>
                <mxCell id="41" value="accelerometer&lt;br&gt;driver" style="whiteSpace=wrap;html=1;verticalAlign=top;" vertex="1" parent="1">
                    <mxGeometry x="520" y="350" width="130" height="40" as="geometry"/>
                </mxCell>
            </root>
        </mxGraphModel>
    </diagram>
</mxfile>
